<?xml version="1.0" standalone="no"?>
<!DOCTYPE svg PUBLIC "-//W3C//DTD SVG 20010904//EN"
 "http://www.w3.org/TR/2001/REC-SVG-20010904/DTD/svg10.dtd">
<svg version="1.0" xmlns="http://www.w3.org/2000/svg"
 width="898.000000pt" height="1280.000000pt" viewBox="0 0 898.000000 1280.000000"
 preserveAspectRatio="xMidYMid meet">
<metadata>
Created by potrace 1.15, written by Peter Selinger 2001-2017
</metadata>
<g transform="translate(0.000000,1280.000000) scale(0.100000,-0.100000)"
fill="#000000" stroke="none">
<path d="M4838 12789 c-35 -20 -17 -59 27 -59 22 0 39 38 24 56 -13 16 -27 17
-51 3z"/>
<path d="M4874 12685 c-15 -11 -17 -17 -8 -32 16 -26 58 -24 62 4 4 30 -29 47
-54 28z"/>
<path d="M4923 12523 c-20 -7 -15 -51 6 -63 11 -5 22 -10 24 -10 9 0 27 62 21
71 -6 10 -31 11 -51 2z"/>
<path d="M3245 12101 c-27 -6 -34 -14 -65 -81 -5 -10 -22 -15 -49 -16 -32 0
-49 -7 -74 -31 -46 -43 -68 -53 -143 -60 -53 -5 -68 -10 -80 -29 -17 -26 -62
-44 -109 -44 -71 0 -118 -69 -120 -176 -2 -87 -7 -96 -50 -88 -29 5 -36 2 -51
-22 -10 -15 -18 -43 -19 -63 0 -33 -3 -36 -40 -46 -35 -10 -40 -16 -43 -44 -3
-31 -6 -33 -32 -28 -26 6 -28 3 -34 -32 -4 -27 -17 -48 -41 -70 -20 -17 -39
-31 -43 -31 -4 0 -13 -4 -21 -9 -12 -8 -12 -12 2 -25 10 -10 16 -31 15 -52 -1
-23 6 -42 21 -58 21 -22 23 -34 24 -172 2 -147 2 -148 -25 -182 -20 -25 -28
-46 -28 -76 0 -22 -7 -79 -14 -126 -9 -52 -11 -101 -7 -126 11 -56 -1 -74 -48
-74 -70 0 -111 -56 -111 -152 0 -29 -8 -45 -35 -73 -31 -31 -42 -35 -85 -35
-58 0 -63 -6 -79 -95 -14 -77 -36 -105 -96 -124 -58 -19 -88 -57 -104 -132
-16 -75 -12 -147 13 -214 20 -55 25 -61 61 -72 22 -7 57 -15 78 -18 57 -9 46
-37 -43 -112 -56 -46 -79 -73 -91 -105 -9 -24 -25 -59 -37 -78 -28 -45 -28
-58 3 -86 19 -18 23 -29 19 -52 -3 -16 -1 -45 4 -66 7 -25 7 -46 0 -67 -8 -23
-7 -35 5 -53 20 -30 91 -63 152 -70 58 -6 73 -20 86 -76 15 -68 76 -183 128
-241 26 -30 54 -72 61 -94 7 -22 28 -56 46 -77 42 -47 54 -70 70 -137 20 -84
117 -287 175 -366 28 -38 67 -104 86 -145 19 -41 43 -93 54 -116 10 -22 19
-56 19 -75 0 -39 12 -59 91 -155 105 -128 265 -259 327 -269 54 -9 88 -24 109
-47 10 -11 54 -38 98 -59 44 -21 98 -48 120 -60 22 -11 47 -24 55 -28 9 -5 16
-26 18 -53 2 -32 10 -52 25 -65 25 -23 98 -53 127 -53 23 0 40 -28 40 -65 0
-14 9 -47 20 -73 31 -73 50 -170 50 -254 0 -43 5 -98 12 -123 11 -40 9 -56
-21 -172 -39 -146 -41 -190 -17 -253 13 -33 18 -73 18 -147 0 -89 3 -106 21
-129 18 -24 19 -31 8 -73 -9 -36 -9 -73 0 -161 15 -142 18 -327 7 -359 -5 -13
-20 -32 -33 -43 -32 -25 -32 -58 1 -97 24 -29 25 -36 19 -93 -5 -38 -16 -73
-28 -90 -21 -28 -21 -29 -3 -113 9 -46 28 -111 42 -144 13 -33 24 -73 24 -88
0 -16 11 -52 25 -81 32 -69 31 -87 -6 -158 -31 -58 -32 -60 -23 -149 15 -167
5 -417 -20 -484 -21 -57 -20 -83 4 -114 40 -51 60 -109 60 -179 0 -42 6 -81
17 -103 16 -34 16 -36 -5 -65 -26 -34 -27 -48 -8 -75 7 -11 16 -42 19 -68 7
-53 72 -186 94 -194 8 -3 29 3 48 12 31 18 35 18 59 2 14 -10 26 -26 26 -35 0
-10 16 -32 35 -49 35 -31 41 -50 26 -88 -4 -10 -3 -31 2 -46 8 -20 6 -37 -7
-68 -18 -47 -15 -58 21 -72 18 -7 23 -14 18 -27 -21 -54 -18 -70 16 -91 77
-45 86 -79 44 -169 -28 -61 -30 -86 -10 -122 9 -16 14 -56 15 -116 0 -77 -3
-95 -20 -117 -11 -14 -20 -29 -20 -35 0 -5 9 -17 20 -27 11 -10 20 -23 20 -29
1 -27 21 -40 65 -41 27 -1 53 -9 62 -18 14 -14 13 -17 -15 -31 -31 -16 -36
-28 -47 -108 -7 -44 -5 -49 20 -70 70 -58 75 -66 75 -113 0 -43 18 -75 48 -86
5 -2 20 -31 33 -64 20 -49 31 -63 61 -77 20 -10 44 -31 54 -47 9 -16 28 -34
40 -40 16 -7 28 -27 39 -66 9 -31 26 -67 38 -81 l22 -26 54 28 c50 26 56 27
114 17 34 -6 79 -18 100 -26 31 -14 37 -21 37 -47 0 -60 -86 -67 -115 -9 -31
58 -105 59 -105 0 0 -32 24 -58 59 -63 38 -5 38 -28 1 -28 -41 0 -35 -18 13
-36 20 -8 54 -21 75 -29 46 -17 94 -19 110 -3 7 7 12 28 12 48 0 26 13 56 45
105 82 129 68 118 151 111 73 -7 74 -7 74 17 0 32 -30 57 -68 57 -27 0 -32 4
-32 23 0 13 -11 34 -24 46 -75 71 -72 199 5 243 32 19 32 22 29 148 l-2 76 51
47 c28 26 62 52 76 59 53 24 67 104 29 166 -12 18 -23 22 -68 22 -43 0 -61 6
-94 29 -22 16 -43 35 -47 40 -3 6 -24 20 -45 31 -48 25 -70 64 -70 126 0 39 5
51 33 79 22 22 47 36 73 40 21 3 46 10 54 14 26 14 35 86 28 241 -3 70 4 90
33 90 26 0 23 20 -6 49 -33 31 -31 50 6 58 23 4 29 10 27 27 -2 17 -12 22 -53
26 -69 7 -75 13 -75 73 0 51 -1 53 -48 82 -53 34 -64 65 -35 97 24 26 88 20
135 -13 28 -21 47 -24 130 -27 87 -3 98 -2 117 17 23 23 29 87 10 93 -6 2 -16
42 -22 90 -9 75 -8 92 7 132 21 55 47 66 106 42 64 -25 68 -25 275 40 44 13
91 24 103 24 52 0 81 31 143 153 69 136 71 155 16 227 -70 92 -77 105 -77 135
0 16 -8 53 -18 80 l-18 50 -47 -3 c-62 -4 -103 18 -128 71 -16 34 -18 47 -10
70 14 36 31 34 74 -7 27 -25 47 -34 86 -39 54 -6 100 -27 144 -63 35 -30 54
-30 112 -2 l46 22 42 -22 c53 -28 58 -28 88 4 13 14 38 33 54 41 59 30 85 63
85 109 0 37 6 49 39 81 49 50 64 79 96 194 27 98 49 129 90 129 18 0 26 8 34
33 6 19 25 43 41 55 20 15 31 34 35 59 24 151 55 229 144 362 96 144 94 138
86 260 -6 85 -12 114 -31 147 -30 51 -32 120 -5 172 20 39 72 91 151 151 25
19 57 51 72 72 35 49 72 68 149 76 58 6 66 10 132 69 102 92 119 99 263 100
67 1 132 4 145 7 14 4 36 26 52 52 16 25 54 67 84 93 l55 48 3 75 c2 41 4 80
4 86 1 7 16 19 34 26 47 20 62 43 59 95 -2 51 6 64 61 99 51 32 58 56 41 129
-7 32 -14 85 -14 116 0 53 3 60 36 93 23 24 34 42 30 52 -28 73 -28 141 1 165
27 22 33 55 18 105 -7 26 -17 84 -20 128 -4 44 -14 98 -21 120 -18 52 -17 69
2 107 14 28 14 34 0 72 -9 22 -13 52 -9 66 8 36 51 78 92 91 40 13 71 36 71
54 0 6 13 29 29 51 16 21 32 49 35 61 4 13 27 66 52 118 38 82 48 95 68 95 19
0 35 15 69 68 25 37 74 101 108 142 l63 74 7 101 c4 62 14 122 28 159 27 76
27 84 -9 186 -16 47 -30 104 -30 128 0 38 -6 50 -49 95 l-50 52 -98 3 c-97 3
-98 4 -131 38 -17 19 -36 32 -42 29 -18 -11 -44 12 -99 87 -53 72 -164 168
-216 188 -14 5 -35 26 -46 45 -25 42 -50 45 -154 15 -38 -11 -87 -20 -109 -20
-39 0 -194 47 -252 77 -39 20 -105 11 -170 -23 -51 -27 -67 -25 -40 5 32 35
23 74 -29 134 -28 33 -59 59 -75 62 -15 3 -39 19 -54 36 -21 24 -34 29 -70 29
-34 0 -52 7 -76 27 -32 26 -74 38 -178 50 -46 5 -56 3 -77 -17 -14 -13 -32
-42 -41 -66 -21 -55 -134 -154 -176 -154 -24 0 -28 4 -28 28 0 35 16 52 50 52
37 0 62 21 88 74 12 25 32 67 44 92 30 61 19 77 -58 85 -32 4 -109 7 -170 8
-141 1 -148 -4 -146 -114 2 -79 4 -78 -50 -89 -15 -4 -42 -19 -61 -35 -34 -31
-44 -34 -92 -32 -28 1 -27 3 48 75 42 41 77 81 77 91 0 9 11 40 25 69 18 38
36 58 64 74 28 16 43 33 51 58 7 20 25 50 40 67 37 44 62 94 58 120 -2 17 -17
26 -66 42 -35 12 -67 28 -72 35 -4 8 -10 50 -13 93 -5 65 -10 84 -34 115 -23
31 -29 50 -33 111 l-5 75 -33 8 c-29 8 -38 18 -65 76 -36 78 -42 84 -81 77
-21 -4 -36 2 -58 20 -19 16 -42 25 -63 25 -26 0 -39 7 -56 31 -31 44 -100 73
-153 65 -27 -4 -57 -1 -85 9 -52 18 -115 19 -191 3 -71 -14 -108 -3 -137 43
-12 19 -46 58 -75 86 -42 42 -60 53 -85 53 -45 0 -73 30 -73 78 0 49 -41 114
-106 168 -78 66 -110 78 -157 64 -78 -23 -132 27 -84 78 77 84 7 162 -147 162
-79 0 -86 5 -86 55 0 32 25 55 60 55 48 0 48 21 0 53 -34 24 -78 21 -129 -8
-28 -16 -59 -25 -87 -25 -26 0 -57 -8 -76 -20 -18 -11 -41 -20 -51 -20 -10 0
-27 -15 -38 -34 -11 -19 -26 -36 -33 -39 -16 -6 -80 22 -158 69 l-59 36 -107
-6 c-59 -4 -125 -9 -148 -12 -50 -7 -74 13 -74 61 0 21 -9 44 -23 61 -22 25
-30 27 -98 28 l-74 1 3 52 c4 57 -4 66 -69 78 -26 5 -39 2 -49 -10 -11 -14 -8
-21 25 -56 36 -36 38 -40 23 -55 -8 -9 -42 -19 -75 -23 -67 -8 -111 -34 -143
-86 -29 -48 -55 -47 -47 1 5 27 1 40 -14 55 -10 10 -19 25 -19 32 0 17 28 43
56 51 37 11 74 53 74 84 0 48 -22 59 -95 43z"/>
<path d="M4810 12046 c0 -21 21 -31 30 -15 5 7 6 17 4 21 -9 14 -34 9 -34 -6z"/>
<path d="M4857 11828 c-26 -9 -28 -14 -23 -44 6 -27 3 -35 -14 -44 -17 -9 -19
-14 -9 -26 18 -22 73 -14 77 11 3 11 13 28 23 38 23 22 25 63 3 71 -19 7 -22
7 -57 -6z"/>
<path d="M16 9904 c-20 -20 -20 -19 6 -66 20 -36 21 -41 6 -49 -8 -5 -19 -20
-22 -34 -19 -77 74 -90 113 -17 19 35 5 116 -26 152 -28 33 -54 38 -77 14z"/>
<path d="M190 9775 c-11 -14 -10 -19 7 -37 13 -13 28 -18 38 -14 21 8 16 35
-11 53 -18 12 -23 11 -34 -2z"/>
<path d="M336 9754 c-10 -26 -7 -34 12 -34 21 0 42 18 42 37 0 19 -47 16 -54
-3z"/>
<path d="M3800 2400 c-25 -25 -25 -31 1 -83 19 -36 20 -48 12 -94 -5 -29 -7
-57 -4 -62 3 -5 31 -11 61 -13 l55 -3 3 62 c2 42 -2 72 -13 92 -8 17 -15 39
-15 51 0 24 -42 70 -65 70 -8 0 -24 -9 -35 -20z"/>
<path d="M5255 2368 c-2 -7 -3 -31 -2 -53 2 -44 28 -65 80 -65 23 0 27 4 27
29 0 16 -6 31 -12 34 -7 2 -13 17 -13 33 0 26 -3 29 -38 32 -24 2 -39 -1 -42
-10z"/>
<path d="M4062 1951 c-20 -12 3 -63 26 -59 24 5 28 44 5 57 -11 5 -25 6 -31 2z"/>
<path d="M3940 1878 c-38 -63 -19 -91 57 -86 43 3 48 5 51 29 4 32 -41 89 -69
89 -11 0 -28 -14 -39 -32z"/>
<path d="M3975 1676 c-8 -12 -38 -35 -66 -50 -27 -15 -48 -33 -46 -39 2 -7 28
-13 63 -14 32 -1 80 -4 105 -8 36 -5 49 -3 63 11 23 23 14 61 -25 97 -36 34
-73 35 -94 3z"/>
<path d="M4003 1327 c-48 -18 -48 -22 3 -52 53 -31 67 -25 62 26 -3 38 -17 44
-65 26z"/>
<path d="M4010 1192 c-17 -6 -11 -28 16 -53 21 -19 24 -30 19 -56 -5 -29 -3
-34 20 -43 28 -11 75 -14 75 -5 0 3 -6 16 -14 28 -16 25 -6 64 19 73 18 7 20
40 3 51 -13 7 -118 11 -138 5z"/>
<path d="M6330 753 c-34 -6 -47 -21 -27 -29 24 -9 21 -25 -10 -50 l-27 -21 24
-13 c21 -11 26 -9 71 41 26 30 47 59 45 64 -3 11 -39 15 -76 8z"/>
<path d="M6453 718 c-39 -42 -34 -78 11 -78 33 0 66 21 66 41 0 5 10 9 23 9
24 0 66 25 57 33 -3 3 -34 8 -70 12 -60 6 -67 5 -87 -17z"/>
<path d="M4274 696 c-8 -22 -1 -59 13 -64 15 -4 36 45 29 65 -7 17 -35 17 -42
-1z"/>
<path d="M5114 522 c-17 -11 -34 -48 -34 -76 0 -36 38 -60 74 -46 15 5 34 10
42 10 23 0 16 -37 -12 -54 -18 -13 -24 -24 -22 -44 3 -27 9 -30 91 -47 16 -3
27 -11 24 -18 -6 -18 -82 -20 -119 -3 -18 8 -68 17 -110 20 -69 6 -77 5 -82
-12 -10 -31 4 -52 34 -52 15 0 47 -7 71 -16 24 -8 83 -16 131 -18 54 -2 93 -8
103 -16 13 -11 23 -11 50 -1 104 37 231 44 285 15 26 -13 56 -18 113 -19 82 0
100 9 95 50 -3 16 -9 19 -37 17 -19 -1 -41 4 -50 11 -9 8 -38 17 -66 21 -72 9
-187 67 -249 126 -29 27 -62 50 -73 50 -27 0 -46 24 -38 49 4 13 -1 27 -14 40
-18 18 -33 21 -108 21 -49 0 -93 -4 -99 -8z"/>
<path d="M4427 513 c-9 -14 20 -51 52 -67 29 -16 147 -11 157 6 3 4 -19 20
-50 34 -59 27 -150 42 -159 27z"/>
<path d="M5015 420 c-25 -27 -6 -73 27 -68 25 3 33 26 24 64 -8 29 -27 31 -51
4z"/>
<path d="M4649 384 c-19 -23 4 -62 38 -66 19 -2 27 -8 25 -19 -3 -23 23 -42
48 -34 33 10 27 54 -10 66 -16 6 -32 19 -35 28 -8 28 -51 43 -66 25z"/>
<path d="M5466 149 c-22 -5 -46 -15 -53 -21 -8 -6 -30 -14 -49 -17 -34 -6 -34
-7 -19 -28 11 -16 27 -23 48 -23 18 -1 43 -7 57 -15 14 -8 40 -14 57 -15 31 0
32 2 27 29 l-6 29 53 -2 c49 -1 54 1 57 22 6 39 -15 52 -77 51 -31 -1 -74 -5
-95 -10z"/>
<path d="M5705 70 c-61 -13 -95 -28 -95 -44 0 -22 29 -27 112 -20 81 7 97 18
78 55 -11 20 -30 22 -95 9z"/>
</g>
</svg>
