<?xml version="1.0" encoding="UTF-8"?>
<svg id="flag-icons-ax" xmlns="http://www.w3.org/2000/svg" version="1.1" viewBox="0 0 512 512">
  <defs>
    <style>
      .cls-1, .cls-2 {
        stroke-miterlimit: 3.6;
        stroke-width: .4px;
      }

      .cls-1, .cls-2, .cls-3, .cls-4, .cls-5, .cls-6, .cls-7 {
        stroke: #613a21;
      }

      .cls-1, .cls-3, .cls-4, .cls-5, .cls-6, .cls-7 {
        fill: #ffca26;
      }

      .cls-8 {
        fill: #211e1e;
      }

      .cls-8, .cls-9, .cls-10, .cls-11, .cls-12, .cls-13, .cls-14 {
        stroke-width: 0px;
      }

      .cls-9 {
        fill: #613a21;
      }

      .cls-10 {
        fill: #f8de35;
      }

      .cls-11 {
        fill: #1e3061;
      }

      .cls-2 {
        fill: none;
      }

      .cls-12 {
        fill: #e83028;
      }

      .cls-3 {
        stroke-miterlimit: 3;
        stroke-width: .4px;
      }

      .cls-4 {
        stroke-miterlimit: 3;
        stroke-width: .4px;
      }

      .cls-5 {
        stroke-miterlimit: 3;
        stroke-width: .4px;
      }

      .cls-6 {
        stroke-miterlimit: 3;
        stroke-width: .4px;
      }

      .cls-7 {
        stroke-miterlimit: 3;
        stroke-width: .4px;
      }

      .cls-13 {
        fill: #0c2b5c;
      }

      .cls-14 {
        fill: #fff;
      }
    </style>
  </defs>
  <g>
    <path class="cls-14" d="M0,512h512V0H0V512Z"/>
    <rect class="cls-11" x="0" y="0" width="220.8" height="512"/>
  </g>
  <g>
    <path class="cls-14" d="M80.9,119.9v26c0,.7,0,1.4-.1,2-.4,3.7-2.2,7-4.7,9.5-3,3-7.1,4.8-11.6,4.8s-8.5-1.9-11.5-4.9c-3.1-3-4.8-7.2-4.8-11.5v-26"/>
    <path class="cls-12" d="M37.1,145.8h0c0,7.5,3.1,14.4,8.1,19.3,5,5,11.9,8.1,19.4,8.1s14.4-3.1,19.4-8c5-4.9,8.1-11.8,8.1-19.3v-37h-54.9s0,37,0,37ZM81,119.9v26c0,.7,0,1.4-.1,2-.5,3.7-2.2,7-4.7,9.5-3,3-7.1,4.8-11.6,4.8s-8.5-1.9-11.5-4.9c-3.1-3-4.8-7.2-4.8-11.5v-26"/>
    <g>
      <path class="cls-13" d="M58.2,141.7v-5.2h-7.2v5.2c0,1.1.4,2,1.1,2.7.7.7,1.6,1.1,2.6,1.1s1.9-.4,2.6-1.1c.7-.7,1.1-1.7,1.1-2.7h0ZM52.7,137.7c.4,0,.7.3.7.7s-.3.7-.7.7-.7-.3-.7-.7.3-.7.7-.7M52.7,143.1c-.4,0-.7-.3-.7-.7s.3-.7.7-.7.7.3.7.7-.3.7-.7.7M54.6,141.1c-.4,0-.7-.3-.7-.7s.3-.7.7-.7.7.3.7.7-.3.7-.7.7M56.6,143.1c-.4,0-.7-.3-.7-.7s.3-.7.7-.7.7.3.7.7-.3.7-.7.7M56.6,139.2c-.4,0-.7-.3-.7-.7s.3-.7.7-.7.7.3.7.7-.3.7-.7.7"/>
      <path class="cls-13" d="M78.2,141.7v-5.2h-7.2v5.2c0,1.1.4,2,1.1,2.7.7.7,1.6,1.1,2.6,1.1s1.9-.4,2.6-1.1c.7-.7,1.1-1.7,1.1-2.7h0ZM72.7,137.7c.4,0,.7.3.7.7s-.3.7-.7.7-.7-.3-.7-.7.3-.7.7-.7M72.7,143.1c-.4,0-.7-.3-.7-.7s.3-.7.7-.7.7.3.7.7-.3.7-.7.7M74.6,141.1c-.4,0-.7-.3-.7-.7s.3-.7.7-.7.7.3.7.7-.3.7-.7.7M76.6,143.1c-.4,0-.7-.3-.7-.7s.3-.7.7-.7.7.3.7.7-.3.7-.7.7M76.6,139.2c-.4,0-.7-.3-.7-.7s.3-.7.7-.7.7.3.7.7-.3.7-.7.7"/>
      <g>
        <path class="cls-13" d="M68.2,141.7v-5.2h-7.2v5.2c0,1.1.4,2,1.1,2.7.7.7,1.6,1.1,2.6,1.1s1.9-.4,2.6-1.1c.7-.7,1.1-1.7,1.1-2.7h0ZM62.7,137.7c.4,0,.7.3.7.7s-.3.7-.7.7-.7-.3-.7-.7.3-.7.7-.7M62.7,143.1c-.4,0-.7-.3-.7-.7s.3-.7.7-.7.7.3.7.7-.3.7-.7.7M64.6,141.1c-.4,0-.7-.3-.7-.7s.3-.7.7-.7.7.3.7.7-.3.7-.7.7M66.6,143.1c-.4,0-.7-.3-.7-.7s.3-.7.7-.7.7.3.7.7-.3.7-.7.7M66.6,139.2c-.4,0-.7-.3-.7-.7s.3-.7.7-.7.7.3.7.7-.3.7-.7.7"/>
        <path class="cls-13" d="M68.2,154.2v-5.2h-7.2v5.2s0,0,0,0c0,1.1.4,2,1.1,2.7.7.7,1.6,1.1,2.6,1.1s1.9-.4,2.6-1.1c.7-.7,1.1-1.7,1.1-2.7h0ZM62.7,150.2c.4,0,.7.3.7.7s-.3.7-.7.7-.7-.3-.7-.7.3-.7.7-.7M62.7,155.6c-.4,0-.7-.3-.7-.7s.3-.7.7-.7.7.3.7.7-.3.7-.7.7M64.6,153.6c-.4,0-.7-.3-.7-.7s.3-.7.7-.7.7.3.7.7-.3.7-.7.7M66.6,155.6c-.4,0-.7-.3-.7-.7s.3-.7.7-.7.7.3.7.7-.3.7-.7.7M66.6,151.7c-.4,0-.7-.3-.7-.7s.3-.7.7-.7.7.3.7.7-.3.7-.7.7"/>
        <path class="cls-13" d="M68.2,129.2v-5.2h-7.2v5.2c0,1.1.4,2,1.1,2.7.7.7,1.6,1.1,2.6,1.1s1.9-.4,2.6-1.1c.7-.7,1.1-1.7,1.1-2.7h0ZM62.7,125.3c.4,0,.7.3.7.7s-.3.7-.7.7-.7-.3-.7-.7.3-.7.7-.7M62.7,130.6c-.4,0-.7-.3-.7-.7s.3-.7.7-.7.7.3.7.7-.3.7-.7.7M64.6,128.6c-.4,0-.7-.3-.7-.7s.3-.7.7-.7.7.3.7.7-.3.7-.7.7M66.6,130.6c-.4,0-.7-.3-.7-.7s.3-.7.7-.7.7.3.7.7-.3.7-.7.7M66.6,126.7c-.4,0-.7-.3-.7-.7s.3-.7.7-.7.7.3.7.7-.3.7-.7.7"/>
      </g>
    </g>
    <path class="cls-8" d="M64.4,173.4c-7.3,0-14.2-2.9-19.5-8.1-5.2-5.2-8.1-12.1-8.1-19.4h0s0-37.2,0-37.2h55.2v37.2c0,7.3-2.9,14.2-8.1,19.4-5.2,5.2-12.2,8.1-19.5,8.1M37.1,145.9h0c0,7.2,2.9,14,8,19.2,5.2,5.2,12,8,19.3,8s14.1-2.8,19.3-8c5.1-5.1,8-11.9,8-19.1v-37h-54.5v36.8ZM64.4,162.6c-4.3,0-8.4-1.7-11.6-4.9-3.1-3.1-4.9-7.3-4.9-11.6v-26.2s33,0,33,0v26.2c0,.7,0,1.4-.1,2.1-.4,3.6-2.1,6.9-4.7,9.6-3.1,3.1-7.3,4.8-11.7,4.8M48.2,120.1v25.9c0,4.2,1.7,8.4,4.8,11.4,3.1,3.1,7.2,4.8,11.4,4.8s8.4-1.7,11.5-4.8c2.6-2.6,4.2-5.8,4.6-9.4,0-.6.1-1.3.1-2v-2.5s0-23.4,0-23.4"/>
    <g>
      <path class="cls-10" d="M40.5,118.6c0-2.7,2-3.3,2-3.3,0,0,2,.7,2,3.3"/>
      <path class="cls-10" d="M38.9,115.4l-.3,3.1h2c0-2.5,1.9-2.9,1.9-2.9,0,0,1.9.6,2,2.9h2l-.4-3.1"/>
      <path class="cls-10" d="M38.4,118.4h8.2l.3.4-.3.4h-8.2l-.3-.4.3-.4"/>
      <path class="cls-10" d="M41.4,118.4c0-1.6,1.1-2.1,1.1-2.1,0,0,1.1.5,1.1,2.1"/>
      <path class="cls-10" d="M38.6,114.1h7.8l.3.3-.3.3h-7.8l-.3-.3.3-.3"/>
      <path class="cls-10" d="M38.7,114.8h7.5l.3.3-.3.3h-7.5l-.3-.3.3-.3"/>
      <path class="cls-10" d="M41.2,109.7h.6v.4h.4v-.4h.6v.4h.4v-.4h.6v1l-.3.2h-2.1l-.3-.3"/>
      <path class="cls-10" d="M41.5,114.1h2.1s-.1-3.1-.1-3.1h-1.8"/>
      <path class="cls-10" d="M43.7,111.2h.6v.4h.4v-.4h.6v.4h.4v-.4h.6v1l-.3.2h-2.1l-.3-.2"/>
      <path class="cls-10" d="M44.1,112.4v1.7s1.9,0,1.9,0v-1.7"/>
      <path class="cls-10" d="M38.6,111.2h.6v.4h.4v-.4h.6v.4h.4v-.4h.6v1l-.3.2h-2.1l-.3-.2"/>
      <path class="cls-10" d="M39,112.4v1.7s1.9,0,1.9,0v-1.7"/>
    </g>
    <g>
      <path class="cls-8" d="M42.3,112.7h.4v-.7h-.4v.7Z"/>
      <path class="cls-8" d="M44.9,113.6h.4v-.6h-.4v.6Z"/>
      <path class="cls-8" d="M39.7,113.6h.4v-.6h-.4v.6Z"/>
      <path class="cls-8" d="M46.6,118.3l-.3-2.7.4-.5v-.3c0,0,.2-.4.2-.4l-.4-.5h-.3v-1.5s.3-.4.3-.4v-1.1h-.8v.4h-.2v-.4h-.8v.4h-.2v-.4h-.8v1.1l.4.4v1.5h-.3v-3c-.1,0,0,0,0,0l.4-.4v-1.1h-.9s0,.4,0,.4h-.2v-.4h-.9s0,.4,0,.4h-.2v-.4h-.8v1.1l.4.4h0v3h-.4v-1.5s.3-.4.3-.4v-1.1h-.8v.4h-.2v-.4h-.8v.4h-.2v-.4h-.8v1.1l.4.4v1.5h-.3l-.4.5.3.4v.3c0,0,.3.5.3.5l-.3,2.7h0l-.4.5.4.5h8.2l.4-.5-.4-.5M46.3,118.3h-1.7c0-1.2-.6-1.9-1-2.3l-.6-.4h3l.3,2.7ZM42.5,116.3l-.4.3c-.4.3-.7.8-.8,1.8h-.6c0-2.4,1.8-2.7,1.8-2.7,0,0,1.7.5,1.9,2.7h-.6c0-1.5-1.1-2.1-1.2-2.1M43.5,118.3h-2c0-1.2.8-1.7,1-1.8.2.1,1,.6,1,1.8M43.9,112.2v-.8h.4v.4h.7v-.4h.4v.4h.7v-.4h.4v.9h-.1c0,.1-2.1.1-2.1.1h-.2M45.9,114h-1.7v-1.4h1.7v1.4ZM41.4,110.8h-.2v-1h.4v.4h.7v-.4h.4v.4h.7v-.4h.4v.9h-.2c0,.1-2.1.1-2.1.1ZM43.4,114h-1.8s.1-2.9.1-2.9h1.6v2.9ZM38.8,112.2v-.8h.3v.4h.7v-.4h.4v.4h.7v-.4h.4v.8h-.1c0,.1-2.1.1-2.1.1h-.1M40.8,114h-1.7v-1.4h1.7v1.4ZM38.4,114.4l.2-.2h7.8l.2.2-.2.2h-7.8l-.2-.2M38.6,115.1l.2-.2h7.5l.2.2-.2.2h-7.5l-.2-.2M39,115.6h3l-.4.3c-.5.4-1.1,1.1-1.1,2.5h-1.7s.3-2.7.3-2.7ZM46.6,119.1h-8.2l-.2-.2.2-.3h8.2l.2.3-.2.2"/>
    </g>
    <g>
      <path class="cls-10" d="M62.5,118.6c0-2.7,2-3.3,2-3.3,0,0,2,.7,2,3.3"/>
      <path class="cls-10" d="M60.9,115.4l-.3,3h2c0-2.5,1.9-2.9,2-2.9s1.9.6,2,3h2l-.4-3.1"/>
      <path class="cls-10" d="M60.4,118.4h8.2l.3.4-.3.4h-8.2l-.3-.4.3-.4"/>
      <path class="cls-10" d="M63.4,118.4c0-1.6,1.1-2,1.1-2,0,0,1.1.5,1.1,2"/>
      <path class="cls-10" d="M60.6,114.1h7.8l.3.3-.3.3h-7.8l-.3-.3.3-.3"/>
      <path class="cls-10" d="M60.8,114.8h7.5l.3.3-.3.4h-7.5l-.3-.4.3-.3"/>
      <path class="cls-10" d="M63.2,109.7h.6v.4h.4v-.4h.6v.4h.4v-.4h.6v1l-.3.2h-2.1l-.3-.2"/>
      <path class="cls-10" d="M63.5,114.1h2.1s-.1-3.1-.1-3.1h-1.8"/>
      <path class="cls-10" d="M65.8,111.2h.6v.4h.4v-.4h.6v.4h.4v-.4h.6v1l-.3.2h-2.1l-.3-.2"/>
      <path class="cls-10" d="M66.1,114.1h2v-1.7h-1.9"/>
      <path class="cls-10" d="M60.7,111.2h.6v.4h.4v-.4h.6v.4h.4v-.4h.6v1l-.3.2h-2.1l-.3-.3"/>
      <path class="cls-10" d="M61,112.4v1.7c0,0,1.9,0,1.9,0v-1.7"/>
    </g>
    <g>
      <path class="cls-8" d="M64.3,112.7h.4v-.7h-.4v.7Z"/>
      <path class="cls-8" d="M66.9,113.6h.4v-.6h-.4v.6Z"/>
      <path class="cls-8" d="M61.7,113.6h.4v-.6h-.4v.6Z"/>
      <path class="cls-8" d="M68.6,118.3l-.3-2.8.4-.4v-.3c0,0,.2-.4.2-.4l-.4-.5h-.3v-1.5s.3-.4.3-.4v-1.1h-.8v.4h-.2v-.4h-.8v.4h-.2v-.4h-.8v1.1l.4.4v1.5h-.4v-3c-.1,0,0,0,0,0l.4-.4v-1.1h-.9v.4h-.2v-.4h-.9v.4h-.2v-.4h-.8v1.1l.4.4h0v3h-.4v-1.5s.3-.4.3-.4v-1.1h-.8v.4h-.2v-.4h-.8v.4h-.2v-.4h-.8v1.1l.4.4v1.5h-.3l-.4.5.3.4v.3c0,0,.3.4.3.4l-.3,2.8h0l-.4.5.4.5h8.2l.4-.5-.4-.5M68.4,118.3h-1.7c0-1.2-.6-1.9-1-2.3l-.6-.4h3l.3,2.7ZM64.5,116.3l-.4.3c-.3.3-.7.8-.8,1.8h-.6c0-2.4,1.8-2.7,1.8-2.7,0,0,1.7.5,1.9,2.7h-.6c0-1.5-1.1-2.1-1.2-2.1M65.5,118.3h-2c0-1.2.8-1.7,1-1.8.2.1,1,.6,1,1.8M65.9,112.2v-.8h.3v.4h.7v-.4h.4v.4h.7v-.4h.4v.8h-.1c0,.1-2.1.1-2.1.1h-.1M67.9,114h-1.7v-1.4h1.7v1.4ZM63.5,110.8h-.2v-1h.4v.4h.7v-.4h.4v.4h.7v-.4h.4v.9h-.1c0,.1-2.1.1-2.1.1ZM65.4,114h-1.8s.1-2.9.1-2.9h1.6v2.9ZM60.8,112.2v-.8h.3v.4h.7v-.4h.4v.4h.7v-.4h.4v.8h-.1c0,.1-2.1.1-2.1.1h-.1M62.8,114h-1.7v-1.4h1.7v1.4ZM60.4,114.4l.2-.2h7.8l.2.2-.2.2h-7.8l-.2-.2M60.6,115.1l.2-.2h7.5l.2.2-.2.2h-7.5l-.2-.2M61,115.6h3l-.4.3c-.5.4-1.1,1.1-1.1,2.4h-1.7l.3-2.7ZM68.6,119.1h-8.2l-.2-.3.2-.3h8.2l.2.3-.2.3"/>
    </g>
    <g>
      <path class="cls-10" d="M84.3,118.6c0-2.7,2-3.3,2-3.3,0,0,2,.7,2,3.3"/>
      <path class="cls-10" d="M82.7,115.4l-.3,3h2c0-2.5,1.9-2.9,2-2.9s1.9.6,2,3h2l-.4-3.1"/>
      <path class="cls-10" d="M82.2,118.5h8.2l.3.4-.3.4h-8.2l-.3-.4.3-.4"/>
      <path class="cls-10" d="M85.2,118.4c0-1.6,1.1-2,1.1-2,0,0,1.1.5,1.1,2"/>
      <path class="cls-10" d="M82.4,114.1h7.8l.3.3-.3.3h-7.8l-.3-.3.3-.3"/>
      <path class="cls-10" d="M82.6,114.8h7.5l.3.3-.3.4h-7.5l-.3-.4.3-.3"/>
      <path class="cls-10" d="M85,109.7h.6v.4h.4v-.4h.6v.4h.4v-.4h.6v1l-.3.2h-2.1l-.3-.2"/>
      <path class="cls-10" d="M85.3,114.1h2.1s-.1-3.1-.1-3.1h-1.8"/>
      <path class="cls-10" d="M87.6,111.2h.6v.4h.4v-.4h.6v.4h.4v-.4h.6v1l-.3.3h-2.1l-.3-.3"/>
      <path class="cls-10" d="M87.9,112.4v1.7c0,0,1.9,0,1.9,0v-1.7"/>
      <path class="cls-10" d="M82.4,111.2h.6v.4h.4v-.4h.6v.4h.4v-.4h.6v1l-.2.3h-2.1l-.3-.3"/>
      <path class="cls-10" d="M82.8,112.4v1.7c0,0,1.9,0,1.9,0v-1.7"/>
    </g>
    <g>
      <path class="cls-8" d="M86.1,112.7h.4v-.7h-.4v.7Z"/>
      <path class="cls-8" d="M88.7,113.6h.4v-.6h-.4v.6Z"/>
      <path class="cls-8" d="M83.5,113.6h.4v-.6h-.4v.6Z"/>
      <path class="cls-8" d="M90.4,118.3l-.3-2.8.4-.5v-.2c0,0,.2-.4.2-.4l-.4-.5h-.2v-1.5c0,0,.3-.4.3-.4v-1.1h-.8v.4h-.2v-.4h-.8v.4h-.2v-.4h-.8v1.1l.4.4v1.5h-.4v-3c-.1,0,0,0,0,0l.4-.4v-1.1h-.9s0,.4,0,.4h-.2v-.4h-.8s0,.4,0,.4h-.2v-.4h-.8v1.1l.4.4h0v3h-.4v-1.5s.3-.4.3-.4v-1.1h-.8v.4h-.2v-.4h-.8v.4h-.2v-.4h-.8v1.1l.4.4v1.5h-.3l-.4.5.3.4v.2c0,0,.3.5.3.5l-.3,2.8h0l-.4.5.4.5h8.2l.4-.5-.4-.5M90.2,118.3h-1.8c0-1.2-.6-1.9-1-2.3l-.6-.4h3l.3,2.7ZM86.3,116.3l-.4.3c-.3.3-.7.8-.8,1.8h-.6c0-2.4,1.8-2.7,1.8-2.7,0,0,1.7.5,1.9,2.7h-.6c0-1.5-1.1-2.1-1.2-2.1M87.3,118.3h-2c0-1.2.8-1.7,1-1.8.2.1,1,.6,1,1.8M87.7,112.2v-.8h.3v.4h.7v-.4h.4v.4h.7v-.4h.4v.8h-.1c0,.1-2.1.1-2.1.1h-.1M89.7,114h-1.7v-1.4h1.7v1.4ZM85.3,110.8h-.2v-1h.3v.4h.7v-.4h.4v.4h.7v-.4h.4v.9h-.1c0,.1-2.1.1-2.1.1ZM87.2,114h-1.8s.1-2.9.1-2.9h1.6s.1,2.9.1,2.9ZM82.6,112.2v-.8h.3v.4h.7v-.4h.4v.4h.7v-.4h.4v.8h-.2c0,.1-2.1.1-2.1.1h-.1M84.6,114h-1.7v-1.4h1.7v1.4ZM82.2,114.5l.2-.2h7.8l.2.2-.2.2h-7.8l-.2-.2M82.4,115.1l.2-.2h7.5l.2.2-.2.2h-7.5l-.2-.2M82.8,115.6h3l-.4.3c-.5.4-1,1.1-1.1,2.5h-1.7s.3-2.7.3-2.7ZM90.4,119.1h-8.2l-.2-.3.2-.3h8.2l.2.3-.2.3"/>
    </g>
    <g>
      <path class="cls-10" d="M84.3,140.9c0-2.7,2-3.3,2-3.3,0,0,2,.7,2,3.3"/>
      <path class="cls-10" d="M82.7,137.7l-.3,3.1h2c0-2.5,1.9-2.9,2-2.9s1.9.6,2,3h2l-.4-3.1"/>
      <path class="cls-10" d="M82.2,140.8h8.2l.3.4-.3.4h-8.2l-.3-.4.3-.4"/>
      <path class="cls-10" d="M85.2,140.7c0-1.6,1.1-2.1,1.1-2.1,0,0,1.1.5,1.1,2.1"/>
      <path class="cls-10" d="M82.4,136.4h7.8l.3.3-.3.3h-7.8l-.3-.3.3-.3"/>
      <path class="cls-10" d="M82.6,137.1h7.5l.3.3-.3.4h-7.5l-.3-.4.3-.3"/>
      <path class="cls-10" d="M85,132h.6v.4h.4v-.4h.6v.4h.4v-.4h.6v1l-.3.2h-2.1l-.3-.3"/>
      <path class="cls-10" d="M85.3,136.4h2.1s-.1-3.1-.1-3.1h-1.8"/>
      <path class="cls-10" d="M87.6,133.5h.6v.4h.4v-.4h.6v.4h.4v-.4h.6v1l-.3.2h-2.1l-.3-.2"/>
      <path class="cls-10" d="M87.9,134.7v1.7c0,0,1.9,0,1.9,0v-1.7"/>
      <path class="cls-10" d="M82.4,133.5h.6v.4h.4v-.4h.6v.4h.4v-.4h.6v1l-.2.3h-2.1l-.3-.3"/>
      <path class="cls-10" d="M82.8,134.7v1.7c0,0,1.9,0,1.9,0v-1.7"/>
    </g>
    <g>
      <path class="cls-8" d="M86.1,135h.4v-.7h-.4v.7Z"/>
      <path class="cls-8" d="M88.7,135.9h.4v-.6h-.4v.6Z"/>
      <path class="cls-8" d="M83.5,135.9h.4v-.6h-.4v.6Z"/>
      <path class="cls-8" d="M90.4,140.6l-.3-2.7.4-.5v-.3c0,0,.2-.4.2-.4l-.4-.5h-.2v-1.5c0,0,.3-.4.3-.4v-1.1h-.8v.4h-.2v-.4h-.8v.4h-.2v-.4h-.8v1.1l.4.4v1.5h-.4v-3c-.1,0,0,0,0,0l.4-.4v-1.1h-.9s0,.4,0,.4h-.2v-.4h-.8s0,.4,0,.4h-.2v-.4h-.8v1.1l.4.4h0v3h-.4v-1.5s.3-.4.3-.4v-1.1h-.8v.4h-.2v-.4h-.8v.4h-.2v-.4h-.8v1.1l.4.4v1.5h-.3l-.4.5.3.4v.3c0,0,.3.5.3.5l-.3,2.7h0l-.4.5.4.5h8.2l.4-.5-.4-.5M90.2,140.6h-1.8c0-1.2-.6-1.9-1-2.3l-.6-.4h3l.3,2.7ZM86.3,138.6l-.4.3c-.3.3-.7.8-.8,1.8h-.6c0-2.3,1.8-2.7,1.8-2.7,0,0,1.7.5,1.9,2.7h-.6c0-1.5-1.1-2.1-1.2-2.1M87.3,140.6h-2c0-1.2.8-1.7,1-1.8.2.1,1,.6,1,1.8M87.7,134.5v-.8h.3v.4h.7v-.4h.4v.4h.7v-.4h.4v.9h-.1c0,.1-2.1.1-2.1.1h-.1M89.7,136.3h-1.7v-1.4h1.7v1.4ZM85.3,133.1h-.2v-1h.3v.4h.7v-.4h.4v.4h.7v-.4h.4v.9h-.1c0,.1-2.1.1-2.1.1ZM87.2,136.3h-1.8s.1-2.9.1-2.9h1.6v2.9ZM82.6,134.5v-.8h.3v.4h.7v-.4h.4v.4h.7v-.4h.4v.8h-.2c0,.1-2.1.1-2.1.1h-.1M84.6,136.3h-1.7v-1.4h1.7v1.4ZM82.2,136.8l.2-.2h7.8l.2.2-.2.2h-7.8l-.2-.2M82.4,137.4l.2-.2h7.5l.2.2-.2.2h-7.5l-.2-.2M82.8,137.9h3l-.4.3c-.5.4-1,1.1-1.1,2.4h-1.7l.3-2.7ZM90.4,141.4h-8.2l-.2-.3.2-.3h8.2l.2.3-.2.3"/>
    </g>
    <g>
      <path class="cls-10" d="M40.5,140.9c0-2.7,2-3.3,2-3.3,0,0,2,.7,2,3.3"/>
      <path class="cls-10" d="M38.9,137.7l-.3,3.1h2c0-2.5,1.9-2.9,1.9-2.9,0,0,1.9.6,2,3h2l-.4-3.1"/>
      <path class="cls-10" d="M38.4,140.8h8.2l.3.4-.3.4h-8.2l-.3-.4.3-.4"/>
      <path class="cls-10" d="M41.4,140.7c0-1.6,1.1-2.1,1.1-2.1,0,0,1.1.5,1.1,2.1"/>
      <path class="cls-10" d="M38.6,136.4h7.8l.3.3-.3.3h-7.8l-.3-.3.3-.3"/>
      <path class="cls-10" d="M38.7,137.1h7.5l.3.3-.3.4h-7.5l-.3-.4.3-.3"/>
      <path class="cls-10" d="M41.2,132h.6v.4h.4v-.4h.6v.4h.4v-.4h.6v1l-.3.2h-2.1l-.3-.3"/>
      <path class="cls-10" d="M41.5,136.4h2.1s-.1-3.1-.1-3.1h-1.8"/>
      <path class="cls-10" d="M43.7,133.5h.6v.4h.4v-.4h.6v.4h.4v-.4h.6v1l-.3.2h-2.1l-.3-.2"/>
      <path class="cls-10" d="M44.1,134.7v1.7s1.9,0,1.9,0v-1.7"/>
      <path class="cls-10" d="M38.6,133.5h.6v.4h.4v-.4h.6v.4h.4v-.4h.6v1l-.3.3h-2.1l-.3-.3"/>
      <path class="cls-10" d="M39,134.7v1.7s1.9,0,1.9,0v-1.7"/>
    </g>
    <g>
      <path class="cls-8" d="M42.3,135h.4v-.7h-.4v.7Z"/>
      <path class="cls-8" d="M44.9,135.9h.4v-.6h-.4v.6Z"/>
      <path class="cls-8" d="M39.7,135.9h.4v-.6h-.4v.6Z"/>
      <path class="cls-8" d="M46.6,140.6l-.3-2.7.4-.5v-.3c0,0,.2-.4.2-.4l-.4-.5h-.3v-1.5s.3-.4.3-.4v-1.1h-.8v.4h-.2v-.4h-.8v.4h-.2v-.4h-.8v1.1l.4.4v1.5h-.3v-3c-.1,0,0,0,0,0l.4-.4v-1.1h-.9s0,.4,0,.4h-.2v-.4h-.9s0,.4,0,.4h-.2v-.4h-.8v1.1l.4.4h0v3h-.4v-1.5s.3-.4.3-.4v-1.1h-.8v.4h-.2v-.4h-.8v.4h-.2v-.4h-.8v1.1l.4.4v1.5h-.3l-.4.5.3.4v.3c0,0,.3.5.3.5l-.3,2.7h0l-.4.5.4.5h8.2l.4-.5-.4-.5M46.3,140.6h-1.7c0-1.2-.6-1.9-1-2.3l-.6-.4h3l.3,2.7ZM42.5,138.6l-.4.3c-.4.3-.7.8-.8,1.8h-.6c0-2.3,1.8-2.7,1.8-2.7,0,0,1.7.5,1.9,2.7h-.6c0-1.5-1.1-2.1-1.2-2.1M43.5,140.6h-2c0-1.2.8-1.7,1-1.8.2.1,1,.6,1,1.8M43.9,134.5v-.8h.4v.4h.7v-.4h.4v.4h.7v-.4h.4v.9h-.1c0,.1-2.1.1-2.1.1h-.2M45.9,136.3h-1.7v-1.4h1.7v1.4ZM41.4,133.1h-.2v-1h.4v.4h.7v-.4h.4v.4h.7v-.4h.4v.9h-.2c0,.1-2.1.1-2.1.1ZM43.4,136.3h-1.8s.1-2.9.1-2.9h1.6v2.9ZM38.8,134.5v-.8h.3v.4h.7v-.4h.4v.4h.7v-.4h.4v.8h-.1c0,.1-2.1.1-2.1.1h-.1M40.8,136.3h-1.7v-1.4h1.7v1.4ZM38.4,136.8l.2-.2h7.8l.2.2-.2.2h-7.8l-.2-.2M38.6,137.4l.2-.2h7.5l.2.2-.2.2h-7.5l-.2-.2M39,137.9h3l-.4.3c-.5.4-1.1,1.1-1.1,2.4h-1.7l.3-2.7ZM46.6,141.4h-8.2l-.2-.3.2-.3h8.2l.2.3-.2.3"/>
    </g>
    <g>
      <path class="cls-10" d="M49.2,164.2c-1.8-1.9-.9-3.7-.9-3.7s1.9-1,3.8.9"/>
      <path class="cls-10" d="M45.7,163l1.9,2.4,1.4-1.4c-1.8-1.8-.7-3.4-.7-3.5,0,0,1.8-1,3.5.7l1.4-1.4-2.4-1.9"/>
      <path class="cls-10" d="M47.6,165.5l5.8-5.8h.5s0,.5,0,.5l-5.8,5.8h-.5s0-.5,0-.5"/>
      <path class="cls-10" d="M49.7,163.4c-1.1-1.1-.7-2.2-.7-2.2,0,0,1.1-.5,2.2.6"/>
      <path class="cls-10" d="M44.6,162.3l5.5-5.5h.4s0,.5,0,.5l-5.5,5.5h-.5s0-.5,0-.5"/>
      <path class="cls-10" d="M45.2,162.7l5.3-5.3h.4s0,.5,0,.5l-5.3,5.3h-.4s0-.5,0-.5"/>
      <path class="cls-10" d="M43.3,157.4l.4-.4.3.3.3-.3-.3-.3.4-.4.3.3.3-.3-.3-.3.4-.4.7.7v.4s-1.5,1.5-1.5,1.5h-.4"/>
      <path class="cls-10" d="M44.5,158l2.1,2.3,1.5-1.5-2.3-2.1"/>
      <path class="cls-10" d="M46.2,156.6l.4-.4.3.3.3-.3-.3-.3.4-.4.3.3.3-.3-.3-.3.4-.4.7.7v.4l-1.5,1.5h-.4"/>
      <path class="cls-10" d="M47.3,157.2l1.1,1.2,1.4-1.4-1.2-1.1"/>
      <path class="cls-10" d="M42.6,160.3l.4-.4.3.3.3-.3-.3-.3.4-.4.3.3.3-.3-.3-.3.4-.4.7.7v.4l-1.5,1.5h-.4"/>
      <path class="cls-10" d="M43.7,160.9l1.1,1.2,1.4-1.4-1.2-1.1"/>
    </g>
    <g>
      <path class="cls-8" d="M45.7,158.2l.5.5.3-.3-.5-.5-.3.3"/>
      <path class="cls-8" d="M48.3,157.1l.4.4.3-.3-.4-.4-.3.3"/>
      <path class="cls-8" d="M44.7,160.8l.4.4.3-.3-.4-.4-.3.3"/>
      <path class="cls-8" d="M53.3,159.7l-2.2-1.7v-.6c0,0-.3-.1-.3-.1v-.5c-.1,0-.7,0-.7,0l-.2.2-1.1-1v-.5l-.8-.8-.6.6.3.3h-.1c0,.1-.3-.2-.3-.2l-.6.6.3.3h-.1c0,.1-.3-.2-.3-.2l-.6.6.8.7h.5l1,1.1-.2.2-2.2-2h0v-.6l-.8-.8-.6.6.3.3h-.1c0,.1-.3-.2-.3-.2l-.6.6.3.3h-.1c0,.1-.3-.2-.3-.2l-.6.6.8.8h.6s0,0,0,0l2,2.2-.2.2-1.1-1v-.5l-.8-.8-.6.6.3.3h-.1c0,.1-.3-.2-.3-.2l-.6.6.3.3h-.1c0,.1-.3-.2-.3-.2l-.6.6.8.8h.5l1,1.1-.2.2v.6s.5.1.5.1v.2c.1,0,.7,0,.7,0l1.7,2.2h0s0,.7,0,.7h.7s5.8-5.7,5.8-5.7v-.7s-.7,0-.7,0M53.1,159.8l-1.2,1.2c-.9-.8-1.8-.9-2.4-.9h-.7c0,.1,2.1-2,2.1-2l2.2,1.7ZM48.9,161.1v.5c-.2.4,0,1.1.6,1.8l-.4.4c-1.6-1.7-.6-3.2-.6-3.2,0,0,1.6-.9,3.2.6l-.4.4c-1.1-1-2.2-.6-2.3-.6M51.1,161.8l-1.4,1.4c-.8-.9-.6-1.8-.6-2,.2,0,1.1-.3,2,.6M47,157.2l-.6-.6.2-.2.3.3.5-.5-.3-.3.3-.2.3.3.5-.5-.3-.3.3-.2.6.6v.2l-1.5,1.5h-.2M49.7,157.1l-1.2,1.2-1-1,1.2-1.2,1.1,1ZM44.3,158h-.2s-.6-.6-.6-.6l.2-.2.3.3.5-.5-.3-.3.3-.3.3.3.5-.5-.3-.3.3-.3.6.6v.2l-1.5,1.5ZM48,158.8l-1.3,1.3-1.9-2.1,1.1-1.1,2.1,1.9ZM43.4,160.9l-.6-.6.2-.2.3.3.5-.5-.3-.3.2-.2.3.3.5-.5-.3-.3.3-.2.6.6v.2s-1.5,1.5-1.5,1.5h-.2M46.1,160.7l-1.2,1.2-1-1.1,1.2-1.1,1.1,1ZM44.7,162.7v-.3s5.5-5.5,5.5-5.5h.3s0,.3,0,.3l-5.5,5.5h-.3M45.4,163.1v-.3s5.3-5.3,5.3-5.3h.3s0,.3,0,.3h0s-5.3,5.3-5.3,5.3h0s-.3,0-.3,0M46,163.1l2.1-2.1v.5c-.2.6,0,1.5.9,2.5l-1.2,1.2-1.7-2.1ZM53.8,160.2l-5.8,5.8h-.3c0,0,0-.4,0-.4l5.8-5.8h.3s0,.4,0,.4"/>
    </g>
    <g>
      <path class="cls-10" d="M76.9,161.4c1.9-1.8,3.7-.9,3.7-.9s1,1.9-.9,3.8"/>
      <path class="cls-10" d="M78,157.9l-2.4,1.9,1.4,1.4c1.8-1.8,3.4-.7,3.5-.7,0,0,1,1.7-.7,3.5l1.4,1.4,1.9-2.4"/>
      <path class="cls-10" d="M75.6,159.7l5.8,5.8v.5s-.5,0-.5,0l-5.8-5.8v-.5s.5,0,.5,0"/>
      <path class="cls-10" d="M77.7,161.8c1.1-1.1,2.2-.7,2.2-.7,0,0,.5,1.1-.6,2.2"/>
      <path class="cls-10" d="M78.7,156.8l5.5,5.5v.5s-.5,0-.5,0l-5.5-5.5v-.5s.5,0,.5,0"/>
      <path class="cls-10" d="M78.4,157.4l5.3,5.3v.4s-.5,0-.5,0l-5.3-5.3v-.4s.5,0,.5,0"/>
      <path class="cls-10" d="M83.7,155.5l.4.4-.3.3.3.3.3-.3.4.4-.3.3.3.3.3-.3.4.4-.7.7h-.4l-1.5-1.5v-.4"/>
      <path class="cls-10" d="M80.8,158.8l1.5,1.5,2.1-2.3-1.3-1.3"/>
      <path class="cls-10" d="M84.4,158.4l.4.4-.3.3.3.3.3-.3.4.4-.3.3.3.3.3-.3.4.4-.7.7h-.4s-1.5-1.5-1.5-1.5v-.4"/>
      <path class="cls-10" d="M82.6,160.7l1.4,1.4,1.1-1.2-1.3-1.3"/>
      <path class="cls-10" d="M80.8,154.8l.4.4-.3.3.3.3.3-.3.4.4-.3.3.3.3.3-.3.4.4-.7.7h-.4s-1.5-1.5-1.5-1.5v-.4"/>
      <path class="cls-10" d="M79,157.1l1.4,1.4,1.1-1.2-1.3-1.3"/>
    </g>
    <g>
      <path class="cls-8" d="M82.9,157.9l-.5.5.3.3.5-.5-.3-.3"/>
      <path class="cls-8" d="M83.9,160.5l-.4.4.3.3.4-.4-.3-.3"/>
      <path class="cls-8" d="M80.3,156.9l-.4.4.3.3.4-.4-.3-.3"/>
      <path class="cls-8" d="M81.4,165.4l1.7-2.2h.6s.1-.3.1-.3h.5c0-.1,0-.7,0-.7l-.2-.2,1-1.1h.5l.8-.8-.6-.6-.3.3h-.1c0-.1.3-.4.3-.4l-.6-.6-.3.3h-.1c0-.1.3-.4.3-.4l-.6-.6-.7.8v.5l-1.1,1-.2-.2,2-2.2h0s.5,0,.5,0l.8-.8-.6-.6-.3.3h-.1c0-.1.3-.4.3-.4l-.6-.6-.3.3h-.1c0-.1.3-.4.3-.4l-.6-.6-.8.8v.5s0,0,0,0l-2.2,2-.2-.2,1-1.1h.5l.8-.8-.6-.6-.3.3h-.1c0-.1.3-.4.3-.4l-.6-.6-.3.3h-.1c0-.1.3-.4.3-.4l-.6-.6-.8.8v.5l-1.1,1-.2-.2h-.6s-.1.5-.1.5h-.2c0,.1,0,.7,0,.7l-2.2,1.7h0s-.7,0-.7,0v.7s5.7,5.8,5.7,5.8h.6c0,0,0-.7,0-.7M81.2,165.3l-1.2-1.2c.8-.9.9-1.8.9-2.4v-.7c-.1,0,2,2.1,2,2.1l-1.7,2.2ZM80,161.1h-.5c-.4-.2-1.1,0-1.8.6l-.4-.4c1.7-1.6,3.2-.6,3.2-.6,0,0,.9,1.6-.6,3.2l-.4-.4c1-1.1.6-2.3.6-2.3M79.2,163.2l-1.4-1.4c.9-.8,1.8-.6,1.9-.6,0,.2.3,1.1-.5,2M83.8,159.2l.6-.6.2.2-.3.3.5.5.3-.3.2.2-.3.3.5.5.3-.3.2.2-.6.6h-.2l-1.5-1.5v-.2M84,161.9l-1.2-1.2,1.1-1,1.2,1.1-1,1.1ZM83.1,156.5v-.2s.6-.6.6-.6l.2.2-.3.3.5.5.3-.3.3.3-.3.3.5.5.3-.3.3.3-.6.6h-.2s-1.5-1.5-1.5-1.5ZM82.2,160.1l-1.3-1.3,2.1-1.9,1.1,1.1-1.9,2.1ZM80.2,155.5l.6-.6.2.2-.3.3.5.5.3-.3.2.2-.3.3.5.5.3-.3.2.2-.6.6h-.2l-1.5-1.5v-.2M80.4,158.3l-1.2-1.2,1.1-1,1.1,1.1-1,1.1ZM78.4,156.9h.3s5.5,5.5,5.5,5.5v.3s-.3,0-.3,0l-5.5-5.5v-.3M78,157.5h.3s5.3,5.2,5.3,5.2v.3s-.3,0-.3,0h0l-5.3-5.3v-.3M78,158.1l2.1,2.1h-.5c-.6-.2-1.5,0-2.5.9l-1.2-1.2,2.1-1.7ZM80.9,166l-5.8-5.8v-.3s.4,0,.4,0l5.8,5.8v.3s-.4,0-.4,0"/>
    </g>
  </g>
  <g>
    <path class="cls-1" d="M212.4,266.7c4.1-10.6,12.6-11.5,17.5-17.4,1.9-2.3,6.6-1.3,9.9-2,3.1-.7,4.2.7,4.5,3.7,5.9-.2,5.7,2.3,5.2,4.8-.2-1-2.9-1.1-4.2-1,0,2.2-1.5,2.3-3.9,2.9-1.9.5-2.2,3.4-2.2,5.5,5.2.1,9.8-4.5,14.4-9.5,4.7-5.1,12.4-9.5,24.9-8.8,15.2.9,45.3,1.4,55.4-1.6,10.1-3,12.3,1.2,4.9,5.9.9,1.9-1.1,5.2-4.7,6.5,1.7,2.1-1,4.9-6.3,7,.2,3.3-5.1,7.2-11.8,7.8,1.7,4.2-8.5,7.9-19.6,7.2,1.1,1.6-2.6,4.4-6.8,4.4,1.5,1.7-2.3,3.7-5.1,3.8,1.6,1.5-6.3,3.8-10.5,3,.1,1.5-4.6,2.6-7.7,1.9-.4,1.4-3.7,1.9-5.7.5-.5,1.4-2.8,1.6-4.9.2-1.4,1.4-3.7,1.2-5.1-.4-.9,1.5-3,2-4.4.1-1.2,1.6-3,1.1-4.3-.5-.2,1.5-4.6,3.9-7.1-4.9-.6,4.2-1.8,6.8-2.8,8.5.8,2.5,1.3,8.2,1.1,13.2.7,4.9,3,12.1,4.4,16.7,1.4,4.6-.8,4.1-2.1,3.4.2.6.2,1.4,0,2.4-.5-.7-1.8-1.7-2.9-1.7,0,.7-.3,1.4-.9,2-1.2-1.5-2.3-3.3-3.7-3.3-1.4.3-3.9,1.6-4.7,3.8-.3-.5-.4-1.2-.4-1.9-1,.8-4,.9-4.7,0,0,.5,0,.9-.2,1.5-.5-.8-1.7-1.8-2.9-1.9,0,.7-.3,1.4-.9,2.1-1.1-1.5-2.5-2.9-3.8-3-1.4.2-4,1.4-4.9,3.5-.4-1-.6-2.6,0-3.8-.8,0-1.6-.6-1.3-1.5-2.3,4.1-5.4,3.2-6.7,1.2-2.5,2.7-7.5,1.1-5.3-2.3,8.9-13.8,10-18.3,12.5-25.5,1-2.9.4-7.4,1.7-11.7-3.1,5.4-6.9,6.3-7.8,5.1-1,1.2-4.3,2.5-5.2.5-1,.7-3.2.7-4.1-.2-1.6,1.2-3.9,1.4-4.3.2-1.6,1-4.9.9-5.6-.2-2.5,2.1-7.9,1-7.7-2.1-5.8,2.7-11,1.2-10.7-1.6-3.5.4-5.4-1.4-5.2-3-3.7.2-5.9-2.1-5.3-4.6-7.9.7-27.5-1.6-26.2-7.8-5.6-1-13.8-5.1-11.1-8.3-3.6-1-7.7-3.9-7.3-6.8-5.1-1.1-6-5.3-4.4-6.2-4.8-1.6-5.5-7.7,2.8-5.6,11.7,3,43.2,2.5,60.2,1.5,17-1,16.9,3.6,31.8,14.1,6.7,4.7,12.4,3.6,15.7,4.3h0Z"/>
    <path class="cls-2" d="M231.6,325.6c.6.6,1.1,1.6,1.1,2.6"/>
    <path class="cls-2" d="M235.6,327.5c-.5-1.9-2.3-2.2-4-1.9-1.2-.3-2.2-1.1-2.2-3.2s.8-3.4,2.5-6.9c.8-1.7,1.2-4.7,1.4-8"/>
    <path class="cls-2" d="M223,328.8c0-1.5.8-3.1,3.1-3.6,1.2-.2,1.7-.6,1.7-2.3,0-5.7-7.2-6.8-7.2-21"/>
    <path class="cls-2" d="M228.2,299.6c.8-2.1,2.8-3.4,3.9-5.3"/>
    <path class="cls-2" d="M212.4,266.7c1.1.2,2,.7,2.5,1.6"/>
    <path class="cls-2" d="M214.2,325.6c.6.7,1.1,1.7,1,2.8"/>
    <path class="cls-2" d="M218.3,328.8c0-2.5-2-3.5-4.1-3.2-1.2-.4-1.9-.6-1.8-2.7.4-8.6,7.8-11.3,6.1-26.8"/>
    <path class="cls-2" d="M205.7,327.2c.5-.8,1.3-1.4,2.6-1.7,1.2-.2,1.7-.5,1.8-2.3,0-1.6-1-2.4-1.6-3.3-2.8-4.4-5.2-16.5-3.7-21"/>
    <path class="cls-2" d="M239.2,263.1c0,.6,0,1.2,0,1.8,0,6-3.9,8.6-3.8,13.7,0,2.8-.1,5.2-.4,7.2"/>
    <path class="cls-2" d="M213.8,270.6c-12.3-.5-22.7-3.5-28.6-11.8-5.9-8.4-16-8.6-25.9-7.7-9.9,1-20,.7-28.6,0"/>
    <path class="cls-2" d="M144.1,251.7c-.7,2.1,1.7,6,20.2,4"/>
    <path class="cls-2" d="M145.8,254.8c.5,4.2,10,7.2,22.2,4.6"/>
    <path class="cls-2" d="M151.8,259.4c-3.7.1-1.2,4,3.1,4.5,4.3.5,12,.6,16.2-.5"/>
    <path class="cls-2" d="M154.9,263.9c-2.5,2-1.2,4.7,6.7,5.3,1.7.1,8.1.2,14.1-1.5"/>
    <path class="cls-2" d="M162.5,269.3c-2.2,1.5.2,4.1,4.4,4.1s8.9-.7,12.1-2.3"/>
    <path class="cls-2" d="M166.9,273.4c-1.7,2.3,1.1,4.9,6.5,3.6,2.1-.5,7-2.5,8.5-3.7"/>
    <path class="cls-2" d="M173.9,276.9c-2.3,1.5-.8,4.9,3.7,2.8,1.9-.9,4.3-2.3,6-4.1"/>
    <path class="cls-2" d="M177.6,279.7c-.6,1.9,1.4,3.3,4.2,1.6,2.8-1.7,4.3-3.6,5.2-4.9"/>
    <path class="cls-2" d="M181.8,281.3c-.4,1.6,1.5,4.2,7.9-3.1"/>
    <path class="cls-2" d="M184.9,282.5c-.5,2,2.5,3.2,7.2-2.8"/>
    <path class="cls-2" d="M188.2,283.5c1.2,2,3.1,1.9,7.4-2.8"/>
    <path class="cls-2" d="M191.3,284.4c-.2,1.8,2.8,2.3,6.3-1.5"/>
    <path class="cls-2" d="M195.2,285c-.2,1.9,3.5,1,6.1-2.2"/>
    <path class="cls-2" d="M198.6,285.1c1,1.5,4.2,1.6,6.3-2"/>
    <path class="cls-2" d="M204.3,284c-2,2.6,1.2,3.6,3.7,1"/>
    <path class="cls-2" d="M206.6,287.3c4.3-3.3,2.3-10.5,5.6-10.5"/>
    <path class="cls-2" d="M101.9,252.4c8,3,29.7,4.8,44.3,3.6"/>
    <path class="cls-2" d="M106.3,258.6c9.1,2.6,30.8,3.4,44.1,3"/>
    <path class="cls-2" d="M113.6,265.4c6.4,1.5,27.9,4.7,41.7,2.3"/>
    <path class="cls-2" d="M124.7,273.6c5.4,1.4,27.3,3.1,39-.8"/>
    <path class="cls-2" d="M150.9,281.4c3.5-.1,12-2.2,16.6-4.9"/>
    <path class="cls-2" d="M156.2,286c5.1-.7,12.3-2.9,16.9-6.6"/>
    <path class="cls-2" d="M161.3,288.9c3.6-.1,13-4,17-7.1"/>
    <path class="cls-2" d="M172.1,290.5c3.6-1.5,8.1-4.5,11.5-7.5"/>
    <path class="cls-2" d="M179.7,292.6c3.3-2.3,6.2-5.8,8.8-8.8"/>
    <path class="cls-2" d="M185.3,292.9c2.6-1.5,4.5-4.4,6.6-7.3"/>
    <path class="cls-2" d="M189.6,292.6c2.1-1.5,4.7-4.4,6.2-6.8"/>
    <path class="cls-2" d="M193.7,292.9c2-1.6,4.2-4.3,5.6-7.2"/>
    <path class="cls-2" d="M198.9,292.4c1.7-1.5,3.4-3.5,4.8-6.8"/>
    <path class="cls-2" d="M197.7,327c2.6-4.4,5.7-9.7,7.9-14.8"/>
    <path class="cls-2" d="M204.4,325.7c1.5-2.2,2.5-4.8,3.6-6.8"/>
    <path class="cls-2" d="M217.4,325.6c0-2.7-.6-11.1-.4-15.2"/>
    <path class="cls-2" d="M223.4,326.4c0-3.1-1.3-10.1-1.2-15.2"/>
    <path class="cls-2" d="M233.2,325.5c-.4-1.5-1.5-6.6-1.8-8.9"/>
    <path class="cls-2" d="M239.2,268.3c12.8-.2,16.3-20.7,37.3-20.2,21,.5,33.8,2,43.7,1"/>
    <path class="cls-2" d="M280.6,253c13.1,1,18.5-1,18.4-4.1"/>
    <path class="cls-2" d="M278.2,257c8.3,1.1,16.5,1.9,16.2-4.3"/>
    <path class="cls-2" d="M274.5,261.1c6.7,1.4,16.8,3.1,16.5-3.8"/>
    <path class="cls-2" d="M269.6,265c9.5,2.7,18.6,3.7,18-3.1"/>
    <path class="cls-2" d="M265.9,269.4c8.3,3.2,17.3,3.5,16.3-2.4"/>
    <path class="cls-2" d="M261.9,272c7.4,4.8,13.7,4.2,13.7-.3"/>
    <path class="cls-2" d="M258.5,274.4c6.4,4.6,11,4.9,11.6.9"/>
    <path class="cls-2" d="M256.2,276c4.2,4.7,7.9,4.6,8.8,1.9"/>
    <path class="cls-2" d="M253.3,276.4c2.7,4.3,7,5.9,7.4,3.1"/>
    <path class="cls-2" d="M251,277.5c2.7,4.3,6.7,6,7,3.2"/>
    <path class="cls-2" d="M248.5,278.5c2.4,4.5,6.1,6,6.6,3.2"/>
    <path class="cls-2" d="M245.7,278.9c1.7,5,5.3,6.4,6.1,3.5"/>
    <path class="cls-2" d="M242.8,278.4c.8,5.2,4.1,7.3,5.4,4.6"/>
    <path class="cls-2" d="M240.5,279.5c.8,5.2,3.2,6.4,4.8,4.3"/>
    <path class="cls-2" d="M237.5,279.8c.8,5.2,3.2,6.4,4.8,4.3"/>
    <path class="cls-2" d="M238.7,283.7c-.7,1-2,2-3.5.4"/>
    <path class="cls-2" d="M338.9,249.1c-6.7,4.6-35.7,5.7-44.7,5.3"/>
    <path class="cls-2" d="M334.2,255.6c-9.1,4.1-27.5,5.4-44.2,4.7"/>
    <path class="cls-2" d="M327.9,262.7c-7,3.3-32.3,3.6-41.3,2.8"/>
    <path class="cls-2" d="M316.1,270.4c-7.7,1.4-24.7.9-34.8-.1"/>
    <path class="cls-2" d="M296.5,277.6c-5.9-.1-15.6-1.7-21.9-3.3"/>
    <path class="cls-2" d="M289.7,282c-3.8.5-15.1-2-20.8-4.6"/>
    <path class="cls-2" d="M284.6,285.9c-3.3.6-14.6-1.4-20.5-6.7"/>
    <path class="cls-2" d="M274.1,288.8c-4.9-.5-11.3-4.1-14.7-8"/>
    <path class="cls-2" d="M266.5,290.7c-4.3-.9-7.8-4.8-10.6-8.8"/>
    <path class="cls-2" d="M260.8,291.2c-2.2-1.6-6.4-5.1-8.4-8.4"/>
    <path class="cls-2" d="M255.9,291.4c-2.8-1.4-5.1-4.6-6.2-7.5"/>
    <path class="cls-2" d="M250.8,291c-1.6-1.9-3.2-4.1-4.2-6.8"/>
    <path class="cls-2" d="M246.4,291.2c-1.3-1.7-2.3-3.1-3.6-6.6"/>
    <path class="cls-2" d="M242.1,290.7c-1.4-1.5-2.3-3.2-3.6-6.6"/>
    <path class="cls-2" d="M245.4,254.7c-1.4,0-2.7,0-3.3.3"/>
    <path class="cls-2" d="M244.4,251c0,.7-.6.6-.7,1.3"/>
    <path class="cls-2" d="M234.7,250.9c1.6-.5,3.1.7,4.6.4.7-.2,1.8-.3,2.8.3"/>
    <path class="cls-2" d="M236.9,251c-.1.8.5,1.5,1.5,1.6.8,0,1.7-.5,1.6-1.4"/>
  </g>
  <path class="cls-9" d="M220.8,153.7l-.3,1-2.3,7.1h-8.6s6.9,5,6.9,5l-2.6,8.1,6.9-5,6.9,5-2.6-8.1,6.9-5h-8.5s-2.6-8.1-2.6-8.1Z"/>
  <path id="star-4" class="cls-4" d="M220.8,154.9l-2.4,7.3h-7.7s6.3,4.5,6.3,4.5l-2.4,7.3,6.2-4.5,6.2,4.5-2.4-7.3,6.3-4.5h-7.7s-2.4-7.4-2.4-7.4Z"/>
  <g>
    <path id="star-4-2" data-name="star-4" class="cls-7" d="M104.7,215.3l4.6,6.2-4.4,6.3,7.3-2.5,4.6,6.2v-7.7c-.1,0,7.2-2.5,7.2-2.5l-7.4-2.3v-7.7c-.1,0-4.6,6.3-4.6,6.3l-7.4-2.3Z"/>
    <path id="star-4-3" data-name="star-4" class="cls-3" d="M127.4,190l3,7.1-5.8,5.1,7.7-.7,3,7.1,1.7-7.5,7.7-.7-6.6-3.9,1.7-7.5-5.8,5.1-6.6-4Z"/>
    <path id="star-4-4" data-name="star-4" class="cls-5" d="M155.4,170.9l1.3,7.6-6.9,3.6,7.7,1.1,1.3,7.6,3.4-6.9,7.6,1.1-5.5-5.4,3.5-6.9-6.9,3.6-5.5-5.4Z"/>
    <path id="star-4-5" data-name="star-4" class="cls-6" d="M187.1,158.9l-.6,7.7-7.5,1.8,7.2,2.9-.6,7.7,5-5.9,7.1,2.9-4-6.5,5-5.9-7.5,1.8-4.1-6.6Z"/>
    <path id="star-4-6" data-name="star-4" class="cls-6" d="M254.5,158.9l-4.1,6.6-7.5-1.8,5,5.9-4.1,6.6,7.1-2.9,5,5.9-.6-7.7,7.2-2.9-7.5-1.8-.6-7.7Z"/>
    <path id="star-4-7" data-name="star-4" class="cls-5" d="M286.2,170.9l-5.5,5.4-6.9-3.6,3.5,6.9-5.5,5.4,7.6-1.1,3.4,6.9,1.3-7.6,7.6-1.1-6.9-3.6,1.3-7.6Z"/>
    <path id="star-4-8" data-name="star-4" class="cls-3" d="M314.3,190l-6.6,3.9-5.8-5.1,1.7,7.5-6.6,3.9,7.7.7,1.7,7.5,3-7.1,7.7.7-5.8-5.1,3.1-7.1Z"/>
    <path id="star-4-9" data-name="star-4" class="cls-7" d="M336.9,215.3l-7.4,2.3-4.4-6.3v7.7c-.1,0-7.5,2.3-7.5,2.3l7.3,2.5v7.7c-.1,0,4.5-6.1,4.5-6.1l7.3,2.5-4.4-6.3,4.7-6.2Z"/>
  </g>
</svg>