<?xml version="1.0" encoding="UTF-8"?>
<svg id="flag-icons-mc" xmlns="http://www.w3.org/2000/svg" version="1.1" viewBox="0 0 640 480">
  <defs>
    <style>
      .cls-1, .cls-2 {
        stroke-miterlimit: 3.6;
        stroke-width: .4px;
      }

      .cls-1, .cls-2, .cls-3, .cls-4, .cls-5, .cls-6, .cls-7 {
        stroke: #613a21;
      }

      .cls-1, .cls-3, .cls-4, .cls-5, .cls-6, .cls-7 {
        fill: #ffca26;
      }

      .cls-8 {
        fill: #211e1e;
      }

      .cls-8, .cls-9, .cls-10, .cls-11, .cls-12, .cls-13, .cls-14 {
        stroke-width: 0px;
      }

      .cls-9 {
        fill: #613a21;
      }

      .cls-10 {
        fill: #f8de35;
      }

      .cls-11 {
        fill: #1e3061;
      }

      .cls-2 {
        fill: none;
      }

      .cls-12 {
        fill: #e83028;
      }

      .cls-3 {
        stroke-miterlimit: 3;
        stroke-width: .4px;
      }

      .cls-4 {
        stroke-miterlimit: 3;
        stroke-width: .4px;
      }

      .cls-5 {
        stroke-miterlimit: 3;
        stroke-width: .4px;
      }

      .cls-6 {
        stroke-miterlimit: 3;
        stroke-width: .4px;
      }

      .cls-7 {
        stroke-miterlimit: 3;
        stroke-width: .4px;
      }

      .cls-13 {
        fill: #0c2b5c;
      }

      .cls-14 {
        fill: #fff;
      }
    </style>
  </defs>
  <g>
    <path class="cls-14" d="M0,480h640V0H0v480Z"/>
    <rect class="cls-11" x="0" y="0" width="276" height="480"/>
  </g>
  <g>
    <path class="cls-14" d="M101.1,69.8v32.6c0,.8,0,1.8-.2,2.5-.6,4.7-2.7,8.7-5.9,11.9-3.7,3.7-8.8,6-14.5,6s-10.6-2.4-14.3-6.1c-3.8-3.8-6-9-6-14.4v-32.5"/>
    <path class="cls-12" d="M46.4,102.3h0c0,9.4,3.9,17.9,10.1,24.1,6.2,6.2,14.8,10.1,24.2,10.1s18-3.8,24.2-10c6.2-6.2,10.1-14.7,10.1-24.1v-46.3H46.4s0,46.2,0,46.2ZM101.2,69.9v32.6c0,.8,0,1.8-.2,2.5-.6,4.7-2.7,8.7-5.9,11.9-3.7,3.7-8.8,6-14.5,6s-10.6-2.4-14.3-6.1c-3.8-3.8-6-9-6-14.4v-32.5"/>
    <g>
      <path class="cls-13" d="M72.7,97.1v-6.5h-9v6.5c0,1.3.5,2.5,1.3,3.4.8.9,2,1.4,3.2,1.4s2.4-.6,3.2-1.4c.8-.9,1.3-2.1,1.3-3.4h0ZM65.8,92.2c.5,0,.9.4.9.9s-.4.9-.9.9-.9-.4-.9-.9.4-.9.9-.9M65.9,98.9c-.5,0-.9-.4-.9-.9s.4-.9.9-.9.9.4.9.9-.4.9-.9.9M68.2,96.4c-.5,0-.9-.4-.9-.9s.4-.9.9-.9.9.4.9.9-.4.9-.9.9M70.7,98.9c-.5,0-.9-.4-.9-.9s.4-.9.9-.9.9.4.9.9-.4.9-.9.9M70.7,94c-.5,0-.9-.4-.9-.9s.4-.9.9-.9.9.4.9.9-.4.9-.9.9"/>
      <path class="cls-13" d="M97.7,97.1v-6.5h-9v6.5c0,1.3.5,2.5,1.3,3.4.8.9,2,1.4,3.2,1.4s2.4-.6,3.2-1.4c.8-.9,1.3-2.1,1.3-3.4h0ZM90.9,92.2c.5,0,.9.4.9.9s-.4.9-.9.9-.9-.4-.9-.9.4-.9.9-.9M90.9,98.9c-.5,0-.9-.4-.9-.9s.4-.9.9-.9.9.4.9.9-.4.9-.9.9M93.3,96.4c-.5,0-.9-.4-.9-.9s.4-.9.9-.9.9.4.9.9-.4.9-.9.9M95.8,98.9c-.5,0-.9-.4-.9-.9s.4-.9.9-.9.9.4.9.9-.4.9-.9.9M95.8,94c-.5,0-.9-.4-.9-.9s.4-.9.9-.9.9.4.9.9-.4.9-.9.9"/>
      <g>
        <path class="cls-13" d="M85.2,97.1v-6.5h-9v6.5c0,1.3.5,2.5,1.3,3.4.8.9,2,1.4,3.2,1.4s2.4-.6,3.2-1.4c.8-.9,1.3-2.1,1.3-3.4h0ZM78.4,92.2c.5,0,.9.4.9.9s-.4.9-.9.9-.9-.4-.9-.9.4-.9.9-.9M78.4,98.9c-.5,0-.9-.4-.9-.9s.4-.9.9-.9.9.4.9.9-.4.9-.9.9M80.7,96.4c-.5,0-.9-.4-.9-.9s.4-.9.9-.9.9.4.9.9-.4.9-.9.9M83.2,98.9c-.5,0-.9-.4-.9-.9s.4-.9.9-.9.9.4.9.9-.4.9-.9.9M83.2,94c-.5,0-.9-.4-.9-.9s.4-.9.9-.9.9.4.9.9-.4.9-.9.9"/>
        <path class="cls-13" d="M85.2,112.7v-6.5h-9v6.5s0,0,0,0c0,1.3.5,2.5,1.3,3.4.8.9,2,1.4,3.2,1.4s2.4-.6,3.2-1.4c.8-.9,1.3-2.1,1.3-3.4h0ZM78.4,107.8c.5,0,.9.4.9.9s-.4.9-.9.9-.9-.4-.9-.9.4-.9.9-.9M78.4,114.5c-.5,0-.9-.4-.9-.9s.4-.9.9-.9.9.4.9.9-.4.9-.9.9M80.7,112c-.5,0-.9-.4-.9-.9s.4-.9.9-.9.9.4.9.9-.4.9-.9.9M83.2,114.5c-.5,0-.9-.4-.9-.9s.4-.9.9-.9.9.4.9.9-.4.9-.9.9M83.2,109.6c-.5,0-.9-.4-.9-.9s.4-.9.9-.9.9.4.9.9-.4.9-.9.9"/>
        <path class="cls-13" d="M85.2,81.5v-6.5h-9v6.5c0,1.3.5,2.5,1.3,3.4.8.9,2,1.4,3.2,1.4s2.4-.6,3.2-1.4c.8-.9,1.3-2.1,1.3-3.4h0ZM78.4,76.6c.5,0,.9.4.9.9s-.4.9-.9.9-.9-.4-.9-.9.4-.9.9-.9M78.4,83.3c-.5,0-.9-.4-.9-.9s.4-.9.9-.9.9.4.9.9-.4.9-.9.9M80.7,80.8c-.5,0-.9-.4-.9-.9s.4-.9.9-.9.9.4.9.9-.4.9-.9.9M83.2,83.3c-.5,0-.9-.4-.9-.9s.4-.9.9-.9.9.4.9.9-.4.9-.9.9M83.2,78.4c-.5,0-.9-.4-.9-.9s.4-.9.9-.9.9.4.9.9-.4.9-.9.9"/>
      </g>
    </g>
    <path class="cls-8" d="M80.5,136.8c-9.1,0-17.8-3.6-24.4-10.1-6.6-6.5-10.2-15.1-10.2-24.2h0s0-46.4,0-46.4h69v46.5c0,9.1-3.6,17.8-10.1,24.3-6.5,6.5-15.2,10.1-24.4,10.1M46.4,102.4h0c0,9,3.6,17.5,10,24,6.5,6.4,15,10,24.1,10s17.6-3.5,24.1-9.9c6.4-6.4,10-14.8,10-23.8v-46.2H46.4v46ZM80.5,123.2c-5.4,0-10.5-2.2-14.5-6.1-3.9-3.8-6.1-9.2-6.1-14.6v-32.7s41.3,0,41.3,0v32.8c0,.9,0,1.8-.2,2.6-.5,4.5-2.6,8.6-5.9,12-3.9,3.9-9.1,6-14.6,6M60.3,70.2v32.3c0,5.3,2.2,10.5,6,14.3,3.9,3.9,9,6,14.2,6s10.5-2.1,14.3-6c3.3-3.3,5.3-7.3,5.8-11.7,0-.8.2-1.7.2-2.5v-3.1s0-29.2,0-29.2"/>
    <g>
      <path class="cls-10" d="M50.6,68.3c0-3.3,2.4-4.1,2.5-4.1,0,0,2.5.8,2.5,4.2"/>
      <path class="cls-10" d="M48.6,64.2l-.4,3.8h2.5c0-3.2,2.4-3.7,2.4-3.7,0,0,2.4.7,2.5,3.7h2.5l-.4-3.8"/>
      <path class="cls-10" d="M48,68.1h10.2l.4.5-.4.5h-10.2l-.4-.5.4-.5"/>
      <path class="cls-10" d="M51.7,68c0-2,1.4-2.6,1.4-2.6,0,0,1.4.6,1.4,2.6"/>
      <path class="cls-10" d="M48.2,62.6h9.8l.4.4-.4.4h-9.8l-.4-.4.4-.4"/>
      <path class="cls-10" d="M48.4,63.5h9.4l.3.4-.3.4h-9.4l-.3-.4.3-.4"/>
      <path class="cls-10" d="M51.5,57.1h.7v.5h.5v-.5h.8v.5h.5v-.5h.8v1.2l-.3.3h-2.6l-.3-.3"/>
      <path class="cls-10" d="M51.8,62.6h2.6s-.2-3.9-.2-3.9h-2.3"/>
      <path class="cls-10" d="M54.7,59h.7v.5h.5v-.5h.7v.5h.5v-.5h.7v1.2l-.3.3h-2.6l-.3-.3"/>
      <path class="cls-10" d="M55.1,60.5v2.1c0,0,2.4,0,2.4,0v-2.1"/>
      <path class="cls-10" d="M48.3,59h.7v.5h.5v-.5h.7v.5h.5v-.5h.7v1.2l-.3.3h-2.6l-.3-.3"/>
      <path class="cls-10" d="M48.7,60.5v2.1c0,0,2.4,0,2.4,0v-2.1"/>
    </g>
    <g>
      <path class="cls-8" d="M52.9,60.9h.5v-.9h-.5v.9Z"/>
      <path class="cls-8" d="M56.1,62h.5v-.7h-.5v.7Z"/>
      <path class="cls-8" d="M49.7,62h.5v-.7h-.5v.7Z"/>
      <path class="cls-8" d="M58.2,67.9l-.4-3.4.5-.6v-.3c0,0,.2-.5.2-.5l-.5-.6h-.3v-1.8c0,0,.4-.5.4-.5v-1.4h-1v.5h-.2v-.5h-1v.5h-.2v-.5h-1v1.4l.4.4v1.8h-.4l-.2-3.7h0l.5-.5v-1.4h-1.1s0,.5,0,.5h-.2v-.5h-1.1s0,.5,0,.5h-.2v-.5h-1v1.3l.5.5h0l-.2,3.7h-.4v-1.8c0,0,.4-.5.4-.5v-1.4h-1v.5h-.2v-.5h-1.1v.5h-.2v-.5h-1v1.4l.5.4v1.8h-.4l-.5.6.3.5v.3c0,0,.4.6.4.6l-.4,3.4h0l-.5.6.5.6h10.2l.5-.6-.5-.6M57.9,67.9h-2.2c0-1.5-.7-2.4-1.3-2.9l-.7-.5h3.8l.4,3.4ZM53.1,65.3l-.6.3c-.4.4-.9,1.1-1,2.2h-.7c0-2.9,2.3-3.4,2.3-3.4,0,0,2.2.6,2.3,3.4h-.8c0-1.9-1.4-2.6-1.5-2.6M54.4,67.9h-2.5c0-1.5,1-2.1,1.2-2.2.2.1,1.2.7,1.3,2.2M54.8,60.2v-1.1h.4v.5h.8v-.5h.4v.5h.8v-.5h.4v1.1l-.2.2h-2.6s-.2-.2-.2-.2M57.4,62.5h-2.2v-1.8h2.1v1.8ZM51.8,58.5l-.2-.2v-1.1h.4v.5h.8v-.5h.5v.5h.8v-.5h.5v1.1l-.2.2h-2.6ZM54.2,62.5h-2.3s.2-3.6.2-3.6h2l.2,3.6ZM48.4,60.2v-1.1h.4v.5h.8v-.5h.4v.5h.8v-.5h.4v1.1l-.2.2h-2.6l-.2-.2M51,62.5h-2.2v-1.8h2.1v1.8ZM48,63.1l.2-.3h9.8l.2.3-.2.3h-9.8l-.2-.3M48.2,63.9l.2-.3h9.4l.2.3-.2.3h-9.4l-.2-.3M48.7,64.5h3.7l-.5.3c-.6.5-1.3,1.4-1.4,3.1h-2.2s.4-3.4.4-3.4ZM58.2,68.8h-10.2l-.2-.3.2-.3h10.2l.2.3-.2.3"/>
    </g>
    <g>
      <path class="cls-10" d="M78.2,68.3c0-3.3,2.4-4.1,2.5-4.1,0,0,2.5.9,2.5,4.2"/>
      <path class="cls-10" d="M76.1,64.2l-.4,3.8h2.5c0-3.2,2.4-3.7,2.4-3.7s2.4.7,2.5,3.7h2.5l-.4-3.9"/>
      <path class="cls-10" d="M75.6,68.1h10.2l.4.5-.4.5h-10.2l-.4-.5.4-.5"/>
      <path class="cls-10" d="M79.3,68c0-2,1.4-2.5,1.4-2.5,0,0,1.4.6,1.4,2.5"/>
      <path class="cls-10" d="M75.8,62.6h9.8l.4.4-.4.4h-9.8l-.4-.4.4-.4"/>
      <path class="cls-10" d="M76,63.5h9.4l.3.4-.3.4h-9.4l-.4-.4.4-.4"/>
      <path class="cls-10" d="M79,57.1h.7v.5h.5v-.5h.8v.5h.5v-.5h.8v1.2l-.3.3h-2.6l-.3-.3"/>
      <path class="cls-10" d="M79.3,62.6h2.6s-.2-3.9-.2-3.9h-2.3"/>
      <path class="cls-10" d="M82.2,59h.7v.5h.5v-.5h.7v.5h.5v-.5h.7v1.2l-.3.3h-2.6l-.3-.3"/>
      <path class="cls-10" d="M82.6,62.6h2.5v-2.1h-2.4"/>
      <path class="cls-10" d="M75.8,59h.7v.5h.5v-.5h.7v.5h.5v-.5h.7v1.2l-.3.3h-2.6l-.3-.3"/>
      <path class="cls-10" d="M76.3,60.5v2.1c0,0,2.4,0,2.4,0v-2.1"/>
    </g>
    <g>
      <path class="cls-8" d="M80.4,60.9h.5v-.9h-.5v.9Z"/>
      <path class="cls-8" d="M83.6,62h.5v-.7h-.5v.7Z"/>
      <path class="cls-8" d="M77.2,62h.5v-.7h-.5v.7Z"/>
      <path class="cls-8" d="M85.8,67.9l-.4-3.4.5-.6v-.3c0,0,.2-.5.2-.5l-.5-.6h-.3v-1.8c0,0,.4-.5.4-.5v-1.4h-1v.5h-.2v-.5h-1.1v.5h-.2v-.5h-1v1.4l.5.4v1.8h-.4l-.2-3.7h0l.5-.5v-1.4h-1.1v.5h-.2v-.5h-1.1v.5h-.2v-.5h-1v1.4l.5.5h0l-.2,3.7h-.4v-1.8c0,0,.4-.5.4-.5v-1.4h-1v.5h-.2v-.5h-1.1v.5h-.2v-.5h-1v1.3l.5.5v1.8h-.4l-.5.6.3.5v.3c0,0,.4.6.4.6l-.4,3.4h0l-.6.6.6.6h10.2l.5-.6-.5-.6M85.4,67.9h-2.2c0-1.5-.7-2.4-1.3-2.9l-.7-.5h3.8l.4,3.4ZM80.6,65.3l-.6.3c-.4.4-.9,1.1-1,2.3h-.7c0-2.9,2.3-3.4,2.3-3.4,0,0,2.2.6,2.3,3.4h-.8c0-1.9-1.4-2.6-1.5-2.6M81.9,67.9h-2.5c0-1.5,1-2.1,1.2-2.3.2.1,1.2.7,1.3,2.3M82.4,60.2v-1.1h.4v.5h.8v-.5h.4v.5h.8v-.5h.4v1.1l-.2.2h-2.6l-.2-.2M84.9,62.5h-2.2v-1.8h2.1v1.8ZM79.3,58.5l-.2-.2v-1.1h.4v.5h.8v-.5h.5v.5h.8v-.5h.5v1.1l-.2.2h-2.7ZM81.8,62.5h-2.3s.2-3.6.2-3.6h2l.2,3.6ZM76,60.2v-1h.4v.5h.8v-.5h.4v.5h.8v-.5h.4v1.1l-.2.2h-2.6l-.2-.2M78.5,62.5h-2.2v-1.8h2.1v1.8ZM75.5,63.1l.2-.3h9.8l.2.3-.2.3h-9.8l-.2-.3M75.8,63.9l.2-.3h9.4l.2.3-.2.3h-9.4l-.2-.3M76.2,64.5h3.7l-.5.3c-.6.5-1.3,1.4-1.4,3.1h-2.2l.4-3.4ZM85.8,68.9h-10.2l-.2-.3.2-.3h10.2l.2.3-.2.3"/>
    </g>
    <g>
      <path class="cls-10" d="M105.4,68.3c0-3.3,2.4-4.1,2.5-4.1,0,0,2.5.9,2.5,4.2"/>
      <path class="cls-10" d="M103.4,64.2l-.4,3.8h2.5c0-3.2,2.4-3.7,2.4-3.7s2.4.7,2.5,3.7h2.5l-.5-3.9"/>
      <path class="cls-10" d="M102.8,68.1h10.2l.4.5-.4.5h-10.2l-.4-.5.4-.5"/>
      <path class="cls-10" d="M106.5,68.1c0-2,1.4-2.5,1.4-2.5,0,0,1.4.6,1.4,2.5"/>
      <path class="cls-10" d="M103,62.7h9.8l.4.4-.4.4h-9.8l-.4-.4.4-.4"/>
      <path class="cls-10" d="M103.2,63.5h9.4l.4.4-.4.4h-9.4l-.4-.4.4-.4"/>
      <path class="cls-10" d="M106.2,57.1h.7v.5h.5v-.5h.8v.5h.5v-.5h.8v1.2l-.3.3h-2.7l-.3-.3"/>
      <path class="cls-10" d="M106.6,62.6h2.6s-.2-3.9-.2-3.9h-2.3"/>
      <path class="cls-10" d="M109.4,59h.7v.5h.5v-.5h.7v.5h.5v-.5h.7v1.2l-.3.3h-2.6l-.3-.3"/>
      <path class="cls-10" d="M109.9,60.6v2.1c0,0,2.4,0,2.4,0v-2.1"/>
      <path class="cls-10" d="M103.1,59h.7v.5h.5v-.5h.7v.5h.5v-.5h.7v1.2l-.3.3h-2.6l-.3-.3"/>
      <path class="cls-10" d="M103.5,60.6v2.1c0,0,2.4,0,2.4,0v-2.1"/>
    </g>
    <g>
      <path class="cls-8" d="M107.6,60.9h.5v-.9h-.5v.9Z"/>
      <path class="cls-8" d="M110.8,62h.5v-.7h-.5v.7Z"/>
      <path class="cls-8" d="M104.4,62h.5v-.7h-.5v.7Z"/>
      <path class="cls-8" d="M113,67.9l-.4-3.4.5-.6v-.3c0,0,.2-.5.2-.5l-.5-.6h-.3v-1.8c0,0,.4-.5.4-.5v-1.4h-1v.5h-.2v-.5h-1.1v.5h-.2v-.5h-1v1.4l.5.4v1.8h-.4l-.2-3.7h0l.5-.5v-1.4h-1.1s0,.5,0,.5h-.2v-.5h-1.1s0,.5,0,.5h-.2v-.5h-1v1.4l.5.5h0l-.2,3.7h-.4v-1.8c0,0,.4-.5.4-.5v-1.4h-1v.5h-.2v-.5h-1.1v.5h-.2v-.5h-1v1.3l.5.5v1.8h-.4l-.5.6.3.5v.3c0,0,.4.6.4.6l-.4,3.4h0l-.6.6.6.6h10.2l.5-.6-.5-.6M112.7,67.9h-2.2c0-1.5-.7-2.4-1.3-2.9l-.7-.5h3.8l.4,3.4ZM107.9,65.4l-.6.3c-.4.4-.9,1.1-1,2.3h-.8c0-2.9,2.3-3.4,2.3-3.4,0,0,2.2.6,2.3,3.4h-.8c0-1.9-1.4-2.6-1.5-2.6M109.1,67.9h-2.5c0-1.5,1-2.1,1.2-2.2.2.1,1.2.7,1.3,2.2M109.6,60.2v-1.1h.4v.5h.8v-.5h.4v.5h.8v-.5h.4v1.1l-.2.2h-2.6l-.2-.2M112.2,62.5h-2.2v-1.8h2.1v1.8ZM106.6,58.5l-.2-.2v-1.1h.4v.5h.8v-.5h.5v.5h.8v-.5h.5v1.1l-.2.2h-2.7ZM109,62.5h-2.3s.2-3.6.2-3.6h2s.2,3.6.2,3.6ZM103.2,60.2v-1h.4v.5h.8v-.5h.4v.5h.8v-.5h.4v1.1l-.2.2h-2.6l-.2-.2M105.8,62.5h-2.2v-1.8h2.1v1.8ZM102.8,63.1l.2-.3h9.8l.2.3-.2.3h-9.8l-.2-.3M103,63.9l.2-.3h9.4l.2.3-.2.3h-9.4l-.2-.3M103.5,64.5h3.7l-.5.3c-.6.5-1.3,1.4-1.4,3.1h-2.2s.4-3.4.4-3.4ZM113,68.9h-10.2l-.2-.3.2-.3h10.2l.2.3-.2.3"/>
    </g>
    <g>
      <path class="cls-10" d="M105.4,96.2c0-3.3,2.4-4.1,2.5-4.1,0,0,2.5.9,2.5,4.2"/>
      <path class="cls-10" d="M103.4,92.1l-.4,3.8h2.5c0-3.2,2.4-3.7,2.4-3.7s2.4.7,2.5,3.7h2.5l-.5-3.9"/>
      <path class="cls-10" d="M102.8,95.9h10.2l.4.5-.4.5h-10.2l-.4-.5.4-.5"/>
      <path class="cls-10" d="M106.5,95.9c0-2,1.4-2.6,1.4-2.6,0,0,1.4.6,1.4,2.6"/>
      <path class="cls-10" d="M103,90.5h9.8l.4.4-.4.4h-9.8l-.4-.4.4-.4"/>
      <path class="cls-10" d="M103.2,91.4h9.4l.4.4-.4.4h-9.4l-.4-.4.4-.4"/>
      <path class="cls-10" d="M106.2,85h.7v.5h.5v-.6h.8v.6h.5v-.6h.8v1.2l-.3.3h-2.7l-.3-.3"/>
      <path class="cls-10" d="M106.6,90.5h2.6s-.2-3.9-.2-3.9h-2.3"/>
      <path class="cls-10" d="M109.4,86.9h.7v.5h.5v-.5h.7v.5h.5v-.5h.7v1.2l-.3.3h-2.6l-.3-.3"/>
      <path class="cls-10" d="M109.9,88.4v2.1c0,0,2.4,0,2.4,0v-2.1"/>
      <path class="cls-10" d="M103.1,86.9h.7v.5h.5v-.5h.7v.5h.5v-.5h.7v1.2l-.3.3h-2.6l-.3-.3"/>
      <path class="cls-10" d="M103.5,88.4v2.1c0,0,2.4,0,2.4,0v-2.1"/>
    </g>
    <g>
      <path class="cls-8" d="M107.6,88.8h.5v-.9h-.5v.9Z"/>
      <path class="cls-8" d="M110.8,89.9h.5v-.7h-.5v.7Z"/>
      <path class="cls-8" d="M104.4,89.9h.5v-.7h-.5v.7Z"/>
      <path class="cls-8" d="M113,95.8l-.4-3.4.5-.6v-.3c0,0,.2-.5.2-.5l-.5-.6h-.3v-1.8c0,0,.4-.5.4-.5v-1.4h-1v.5h-.2v-.5h-1.1v.5h-.2v-.5h-1v1.4l.5.4v1.8h-.4l-.2-3.7h0l.5-.5v-1.4h-1.1s0,.5,0,.5h-.2v-.5h-1.1s0,.5,0,.5h-.2v-.5h-1v1.3l.5.5h0l-.2,3.7h-.4v-1.8c0,0,.4-.5.4-.5v-1.4h-1v.5h-.2v-.5h-1.1v.5h-.2v-.5h-1v1.3l.5.5v1.8h-.4l-.5.6.3.5v.3c0,0,.4.6.4.6l-.4,3.4h0l-.6.6.6.6h10.2l.5-.6-.5-.6M112.7,95.8h-2.2c0-1.5-.7-2.4-1.3-2.9l-.7-.5h3.8l.4,3.4ZM107.9,93.2l-.6.3c-.4.4-.9,1.1-1,2.2h-.8c0-2.9,2.3-3.4,2.3-3.4,0,0,2.2.6,2.3,3.4h-.8c0-1.9-1.4-2.6-1.5-2.6M109.1,95.8h-2.5c0-1.5,1-2.1,1.2-2.2.2.1,1.2.7,1.3,2.2M109.6,88.1v-1.1h.4v.5h.8v-.6h.4v.6h.8v-.6h.4v1.1l-.2.2h-2.6s-.2-.2-.2-.2M112.2,90.4h-2.2v-1.8h2.1v1.8ZM106.6,86.4l-.2-.2v-1h.4v.5h.8v-.5h.5v.5h.8v-.5h.5v1.1l-.2.2h-2.7ZM109,90.4h-2.3s.2-3.6.2-3.6h2l.2,3.6ZM103.2,88.1v-1h.4v.5h.8v-.5h.4v.5h.8v-.5h.4v1.1l-.2.2h-2.6l-.2-.2M105.8,90.4h-2.2v-1.8h2.1v1.8ZM102.8,91l.2-.3h9.8l.2.3-.2.3h-9.8l-.2-.3M103,91.8l.2-.3h9.4l.2.3-.2.3h-9.4l-.2-.3M103.5,92.4h3.7l-.5.3c-.6.5-1.3,1.4-1.4,3.1h-2.2l.4-3.4ZM113,96.7h-10.2l-.2-.3.2-.3h10.2l.2.3-.2.3"/>
    </g>
    <g>
      <path class="cls-10" d="M50.6,96.2c0-3.3,2.4-4.1,2.5-4.1,0,0,2.5.9,2.5,4.2"/>
      <path class="cls-10" d="M48.6,92.1l-.4,3.8h2.5c0-3.2,2.4-3.7,2.4-3.7,0,0,2.4.7,2.5,3.7h2.5l-.4-3.9"/>
      <path class="cls-10" d="M48,95.9h10.2l.4.5-.4.5h-10.2l-.4-.5.4-.5"/>
      <path class="cls-10" d="M51.7,95.9c0-2,1.4-2.6,1.4-2.6,0,0,1.4.6,1.4,2.6"/>
      <path class="cls-10" d="M48.2,90.5h9.8l.4.4-.4.4h-9.8l-.4-.4.4-.4"/>
      <path class="cls-10" d="M48.4,91.4h9.4l.3.4-.3.4h-9.4l-.3-.4.3-.4"/>
      <path class="cls-10" d="M51.5,85h.7v.5h.5v-.6h.8v.6h.5v-.6h.8v1.2l-.3.3h-2.6l-.3-.3"/>
      <path class="cls-10" d="M51.8,90.5h2.6s-.2-3.9-.2-3.9h-2.3"/>
      <path class="cls-10" d="M54.7,86.9h.7v.5h.5v-.5h.7v.5h.5v-.5h.7v1.2l-.3.3h-2.6l-.3-.3"/>
      <path class="cls-10" d="M55.1,88.4v2.1c0,0,2.4,0,2.4,0v-2.1"/>
      <path class="cls-10" d="M48.3,86.9h.7v.5h.5v-.5h.7v.5h.5v-.5h.7v1.2l-.3.3h-2.6l-.3-.3"/>
      <path class="cls-10" d="M48.7,88.4v2.1c0,0,2.4,0,2.4,0v-2.1"/>
    </g>
    <g>
      <path class="cls-8" d="M52.9,88.8h.5v-.9h-.5v.9Z"/>
      <path class="cls-8" d="M56.1,89.9h.5v-.7h-.5v.7Z"/>
      <path class="cls-8" d="M49.7,89.9h.5v-.7h-.5v.7Z"/>
      <path class="cls-8" d="M58.2,95.8l-.4-3.4.5-.6v-.3c0,0,.2-.5.2-.5l-.5-.6h-.3v-1.8c0,0,.4-.5.4-.5v-1.4h-1v.5h-.2v-.5h-1v.5h-.2v-.5h-1v1.4l.4.4v1.8h-.4l-.2-3.7h0l.5-.5v-1.4h-1.1s0,.5,0,.5h-.2v-.5h-1.1s0,.5,0,.5h-.2v-.5h-1v1.3l.5.5h0l-.2,3.7h-.4v-1.8c0,0,.4-.5.4-.5v-1.4h-1v.5h-.2v-.5h-1.1v.5h-.2v-.5h-1v1.3l.5.5v1.8h-.4l-.5.6.3.5v.3c0,0,.4.6.4.6l-.4,3.4h0l-.5.6.5.6h10.2l.5-.6-.5-.6M57.9,95.8h-2.2c0-1.5-.7-2.4-1.3-2.9l-.7-.5h3.8l.4,3.4ZM53.1,93.2l-.6.3c-.4.4-.9,1.1-1,2.2h-.7c0-2.9,2.3-3.4,2.3-3.4,0,0,2.2.6,2.3,3.4h-.8c0-1.9-1.4-2.6-1.5-2.6M54.4,95.8h-2.5c0-1.5,1-2.1,1.2-2.2.2.1,1.2.7,1.3,2.2M54.8,88.1v-1.1h.4v.5h.8v-.6h.4v.6h.8v-.6h.4v1.1l-.2.2h-2.6s-.2-.2-.2-.2M57.4,90.4h-2.2v-1.8h2.1v1.8ZM51.8,86.4l-.2-.2v-1h.4v.5h.8v-.5h.5v.5h.8v-.5h.5v1.1l-.2.2h-2.6ZM54.2,90.4h-2.3s.2-3.6.2-3.6h2l.2,3.6ZM48.4,88.1v-1h.4v.5h.8v-.5h.4v.5h.8v-.5h.4v1.1l-.2.2h-2.6l-.2-.2M51,90.4h-2.2v-1.8h2.1v1.8ZM48,91l.2-.3h9.8l.2.3-.2.3h-9.8l-.2-.3M48.2,91.8l.2-.3h9.4l.2.3-.2.3h-9.4l-.2-.3M48.7,92.4h3.7l-.5.3c-.6.5-1.3,1.4-1.4,3.1h-2.2l.4-3.4ZM58.2,96.7h-10.2l-.2-.3.2-.3h10.2l.2.3-.2.3"/>
    </g>
    <g>
      <path class="cls-10" d="M61.5,125.2c-2.3-2.4-1.2-4.6-1.2-4.6s2.4-1.2,4.7,1.1"/>
      <path class="cls-10" d="M57.2,123.8l2.4,3,1.8-1.7c-2.2-2.3-.9-4.3-.9-4.3,0,0,2.2-1.2,4.3.9l1.8-1.8-3-2.4"/>
      <path class="cls-10" d="M59.5,126.9l7.2-7.2h.6c0,0,0,.7,0,.7l-7.2,7.2h-.6c0,0,0-.7,0-.7"/>
      <path class="cls-10" d="M62.1,124.3c-1.4-1.4-.8-2.8-.8-2.8,0,0,1.4-.6,2.8.8"/>
      <path class="cls-10" d="M55.8,122.9l6.9-6.9h.6s0,.6,0,.6l-6.9,6.9h-.6s0-.6,0-.6"/>
      <path class="cls-10" d="M56.5,123.4l6.6-6.6h.6s0,.6,0,.6l-6.6,6.6h-.6s0-.6,0-.6"/>
      <path class="cls-10" d="M54.2,116.7l.5-.5.4.4.4-.4-.4-.4.5-.5.4.4.4-.4-.4-.4.5-.6.9.9v.4s-1.9,1.9-1.9,1.9h-.5"/>
      <path class="cls-10" d="M55.7,117.5l2.6,2.9,1.8-1.8-2.9-2.6"/>
      <path class="cls-10" d="M57.8,115.8l.5-.5.4.4.4-.4-.4-.4.5-.5.4.4.4-.4-.4-.4.5-.5.8.8v.5l-1.8,1.8h-.5"/>
      <path class="cls-10" d="M59.2,116.5l1.4,1.5,1.8-1.8-1.5-1.4"/>
      <path class="cls-10" d="M53.3,120.3l.5-.5.4.4.4-.4-.4-.4.5-.5.4.4.4-.4-.4-.4.5-.5.8.9v.4l-1.8,1.8h-.5"/>
      <path class="cls-10" d="M54.7,121.1l1.4,1.5,1.8-1.8-1.5-1.4"/>
    </g>
    <g>
      <path class="cls-8" d="M57.2,117.8l.7.7.4-.4-.7-.7-.4.4"/>
      <path class="cls-8" d="M60.4,116.4l.5.5.4-.3-.5-.5-.3.3"/>
      <path class="cls-8" d="M55.9,121l.5.5.3-.3-.5-.5-.4.3"/>
      <path class="cls-8" d="M66.6,119.6l-2.7-2.1v-.7c0,0-.4-.2-.4-.2v-.6c-.1,0-.9,0-.9,0l-.2.2-1.3-1.2v-.7l-1-1-.7.7.4.4-.2.2-.4-.4-.7.7.4.4-.2.2-.4-.4-.7.7,1,.9h.7l1.2,1.3-.3.3-2.7-2.5h0v-.7l-1-1-.7.7.4.4-.2.2-.4-.4-.7.7.4.4-.2.2-.4-.4-.7.7,1,1h.7s0,0,0,0l2.5,2.7-.3.3-1.3-1.2v-.7l-1-1-.7.7.4.4-.2.2-.4-.4-.7.7.4.4-.2.2-.4-.4-.7.7,1,1h.6l1.2,1.3-.2.2v.8s.6.2.6.2l.2.3h.7c0,0,2.2,2.8,2.2,2.8h0s0,.8,0,.8h.8c0,0,7.2-7.2,7.2-7.2v-.8c0,0-.9,0-.9,0M66.4,119.8l-1.5,1.5c-1.1-1-2.2-1.2-3-1.2l-.9.2,2.7-2.7,2.7,2.1ZM61.2,121.4l-.2.6c0,.6,0,1.4.9,2.3l-.5.5c-2-2.1-.8-4-.8-4,0,0,2-1.1,4,.8l-.6.5c-1.4-1.3-2.8-.8-2.9-.7M63.8,122.3l-1.8,1.8c-1-1.1-.8-2.2-.7-2.4.3,0,1.4-.3,2.5.7M58.7,116.5l-.7-.7.3-.3.4.4.6-.6-.4-.4.3-.3.4.4.6-.6-.4-.4.3-.3.7.7v.2l-1.8,1.9h-.3M62.2,116.3l-1.5,1.5-1.2-1.3,1.5-1.5,1.3,1.2ZM55.4,117.5h-.2s-.7-.7-.7-.7l.3-.3.4.4.6-.6-.4-.4.3-.3.4.4.6-.6-.4-.4.3-.3.7.7v.2l-1.9,1.9ZM59.9,118.5l-1.6,1.6-2.4-2.6,1.4-1.4,2.7,2.4ZM54.2,121.1l-.7-.7.3-.3.4.4.6-.6-.4-.4.3-.3.4.4.6-.6-.4-.4.3-.3.7.7v.2s-1.9,1.8-1.9,1.8h-.2M57.7,120.8l-1.5,1.5-1.2-1.3,1.5-1.4,1.3,1.2ZM55.9,123.4v-.4s6.9-6.9,6.9-6.9h.4s0,.4,0,.4l-6.9,6.9h-.4M56.7,123.8v-.3s6.6-6.6,6.6-6.6h.3c0,0,0,.4,0,.4h0s-6.6,6.6-6.6,6.6h0s-.3,0-.3,0M57.4,123.9l2.6-2.6v.6c-.2.8,0,1.9,1.1,3.1l-1.5,1.5-2.2-2.7ZM67.3,120.2l-7.2,7.2h-.4c0,0,0-.5,0-.5l7.2-7.2h.4s0,.4,0,.4"/>
    </g>
    <g>
      <path class="cls-10" d="M96.1,121.7c2.4-2.3,4.6-1.2,4.6-1.2s1.2,2.4-1.1,4.7"/>
      <path class="cls-10" d="M97.6,117.4l-3,2.4,1.8,1.8c2.2-2.2,4.3-.9,4.3-.9,0,0,1.2,2.2-.9,4.3l1.8,1.8,2.4-3"/>
      <path class="cls-10" d="M94.4,119.7l7.2,7.2v.6c0,0-.7,0-.7,0l-7.2-7.2v-.6c0,0,.7,0,.7,0"/>
      <path class="cls-10" d="M97.1,122.3c1.4-1.4,2.8-.8,2.8-.8,0,0,.6,1.4-.8,2.8"/>
      <path class="cls-10" d="M98.4,116l6.9,6.9v.6s-.6,0-.6,0l-6.9-6.9v-.6s.6,0,.6,0"/>
      <path class="cls-10" d="M98,116.8l6.6,6.6v.6s-.6,0-.6,0l-6.6-6.6v-.6s.6,0,.6,0"/>
      <path class="cls-10" d="M104.6,114.4l.5.5-.4.4.4.4.4-.4.5.5-.4.4.4.4.4-.4.5.6-.8.8h-.5l-1.9-1.9v-.5"/>
      <path class="cls-10" d="M101,118.5l1.8,1.8,2.6-2.9-1.6-1.6"/>
      <path class="cls-10" d="M105.5,118l.5.5-.4.4.4.4.4-.4.5.5-.4.4.4.4.4-.4.5.5-.9.9h-.4s-1.8-1.9-1.8-1.9v-.5"/>
      <path class="cls-10" d="M103.3,120.8l1.8,1.8,1.4-1.5-1.7-1.6"/>
      <path class="cls-10" d="M101,113.5l.5.5-.4.4.4.4.4-.4.5.5-.4.4.4.4.4-.4.5.5-.9.9h-.5s-1.8-1.9-1.8-1.9v-.5"/>
      <path class="cls-10" d="M98.7,116.3l1.8,1.7,1.4-1.5-1.6-1.6"/>
    </g>
    <g>
      <path class="cls-8" d="M103.6,117.4l-.7.7.4.4.7-.7-.4-.4"/>
      <path class="cls-8" d="M104.9,120.6l-.5.5.3.3.5-.5-.3-.4"/>
      <path class="cls-8" d="M100.4,116.1l-.5.5.4.4.5-.5-.3-.3"/>
      <path class="cls-8" d="M101.8,126.8l2.1-2.7h.7c0,0,.2-.3.2-.3l.6-.2v-.8s-.2-.2-.2-.2l1.2-1.3h.7l1-1-.7-.7-.4.4-.2-.2.4-.4-.7-.7-.4.4-.2-.2.4-.4-.7-.7-.9,1v.6l-1.3,1.2-.3-.2,2.5-2.7h0s.7,0,.7,0l1-1-.7-.7-.4.4-.2-.2.4-.4-.7-.8-.4.4-.2-.2.4-.4-.7-.7-1,1v.7s0,0,0,0l-2.7,2.5-.3-.3,1.2-1.3h.6l1-1-.7-.7-.4.4-.2-.2.4-.4-.7-.7-.4.4-.2-.2.4-.4-.7-.7-1,1v.6l-1.3,1.2-.2-.2h-.8s-.2.6-.2.6l-.3.2v.7c0,0-2.8,2.2-2.8,2.2h0s-.8,0-.8,0v.8c0,0,7.2,7.2,7.2,7.2h.8c0,0,0-.9,0-.9M101.5,126.6l-1.5-1.5c1-1.1,1.2-2.2,1.1-3v-.8c-.1,0,2.5,2.7,2.5,2.7l-2.1,2.7ZM100,121.4l-.6-.2c-.6,0-1.4,0-2.3.9l-.5-.5c2.1-2,4-.8,4-.8,0,0,1.1,2-.8,4l-.5-.5c1.3-1.4.8-2.8.7-2.9M99,124.1l-1.8-1.8c1.1-1.1,2.2-.8,2.4-.7,0,.3.4,1.3-.7,2.5M104.8,118.9l.7-.7.3.3-.4.4.6.6.4-.4.3.3-.4.4.6.6.4-.4.3.3-.7.7h-.2l-1.8-1.8v-.2M105,122.4l-1.5-1.5,1.3-1.2,1.5,1.4-1.2,1.3ZM103.9,115.6v-.2s.7-.7.7-.7l.3.3-.4.4.6.6.4-.4.3.3-.4.4.6.6.4-.4.3.3-.7.7h-.2s-1.9-1.9-1.9-1.9ZM102.8,120.1l-1.6-1.6,2.6-2.4,1.4,1.4-2.4,2.6ZM100.3,114.4l.7-.7.3.3-.4.4.6.6.4-.4.3.3-.4.4.6.6.4-.4.3.3-.8.7h-.2l-1.8-1.8v-.2M100.5,117.8l-1.5-1.5,1.3-1.2,1.4,1.4-1.2,1.3ZM98,116.1h.4s6.9,6.9,6.9,6.9v.3s-.4,0-.4,0l-6.9-6.9v-.3M97.5,116.9h.3c0,0,6.6,6.6,6.6,6.6v.3c0,0-.4,0-.4,0h0l-6.6-6.6v-.3M97.5,117.6l2.6,2.6h-.6c-.8-.2-1.9,0-3.1,1.1l-1.5-1.5,2.7-2.1ZM101.1,127.5l-7.2-7.2v-.4s.4,0,.4,0l7.2,7.2v.4c0,0-.4,0-.4,0"/>
    </g>
  </g>
  <g>
    <path class="cls-1" d="M265.5,253.4c5.1-13.3,15.7-14.3,21.9-21.7,2.4-2.9,8.3-1.7,12.4-2.5,3.9-.8,5.2.8,5.6,4.6,7.3-.3,7.2,2.9,6.5,5.9-.3-1.2-3.6-1.4-5.2-1.3,0,2.7-1.9,2.8-4.9,3.6-2.3.6-2.7,4.2-2.8,6.8,6.5.2,12.2-5.6,18.1-11.9,5.9-6.3,15.5-11.8,31.2-11,19,1.1,56.6,1.7,69.3-2,12.6-3.7,15.4,1.5,6.2,7.4,1.1,2.3-1.4,6.4-5.9,8.2,2.2,2.6-1.2,6.2-7.9,8.8.3,4.2-6.3,8.9-14.8,9.7,2.2,5.2-10.6,9.9-24.5,8.9,1.4,2-3.2,5.6-8.5,5.6,1.9,2.2-2.9,4.6-6.3,4.8,2,1.9-7.9,4.8-13.1,3.7.2,1.9-5.7,3.2-9.6,2.3-.5,1.7-4.6,2.3-7.1.6-.6,1.7-3.5,2-6.2.3-1.7,1.7-4.6,1.5-6.3-.5-1.1,1.9-3.7,2.5-5.6.2-1.5,2-3.7,1.4-5.4-.6-.3,1.9-5.8,4.9-8.8-6.2-.8,5.2-2.2,8.5-3.5,10.6,1,3.2,1.6,10.2,1.4,16.5.9,6.2,3.7,15.1,5.5,20.8,1.8,5.7-1,5.1-2.6,4.2.2.8.2,1.7,0,3-.6-.8-2.2-2.1-3.6-2.1,0,.8-.4,1.7-1.1,2.5-1.5-1.9-2.9-4.1-4.6-4.1-1.7.4-4.9,2-5.9,4.7-.3-.7-.5-1.5-.5-2.3-1.2,1-5,1.2-5.8,0,0,.6-.1,1.2-.3,1.9-.7-1-2.1-2.3-3.6-2.3,0,.9-.4,1.8-1.2,2.6-1.4-1.9-3.1-3.6-4.8-3.7-1.7.3-5,1.8-6.1,4.4-.5-1.3-.8-3.3.1-4.8-1,0-2-.7-1.7-1.9-2.9,5.1-6.8,4-8.3,1.5-3.1,3.4-9.4,1.4-6.6-2.9,11.1-17.3,12.5-22.8,15.6-31.9,1.2-3.6.5-9.3,2.2-14.7-3.9,6.8-8.6,7.9-9.7,6.3-1.2,1.5-5.4,3.1-6.5.6-1.2.9-4,.9-5.1-.3-2,1.5-4.9,1.7-5.4.3-2,1.2-6.2,1.1-6.9-.3-3.1,2.6-9.9,1.2-9.6-2.6-7.2,3.4-13.7,1.5-13.4-2-4.3.5-6.8-1.7-6.5-3.7-4.6.3-7.4-2.6-6.6-5.7-9.9.9-34.4-2-32.7-9.7-6.9-1.2-17.3-6.3-13.9-10.3-4.5-1.2-9.6-4.9-9.1-8.5-6.3-1.4-7.6-6.6-5.6-7.7-6-2-6.9-9.6,3.5-6.9,14.7,3.7,54,3.1,75.3,1.9,21.3-1.2,21.1,4.5,39.8,17.6,8.4,5.9,15.5,4.5,19.6,5.3h0Z"/>
    <path class="cls-2" d="M289.5,327c.8.8,1.4,2,1.4,3.3"/>
    <path class="cls-2" d="M294.5,329.3c-.6-2.3-2.9-2.8-4.9-2.4-1.5-.4-2.7-1.4-2.7-4s1-4.2,3.1-8.6c1-2.2,1.5-5.9,1.7-10"/>
    <path class="cls-2" d="M278.7,331.1c0-1.9,1-3.9,3.9-4.5,1.5-.3,2.2-.7,2.2-2.9,0-7.2-8.9-8.6-8.9-26.3"/>
    <path class="cls-2" d="M285.3,294.5c1.1-2.6,3.6-4.3,4.9-6.6"/>
    <path class="cls-2" d="M265.5,253.4c1.4.3,2.5.8,3.1,2.1"/>
    <path class="cls-2" d="M267.8,327c.8.8,1.4,2.2,1.3,3.5"/>
    <path class="cls-2" d="M272.9,331c0-3.2-2.6-4.4-5.1-4-1.4-.4-2.3-.7-2.2-3.3.5-10.7,9.8-14.1,7.7-33.6"/>
    <path class="cls-2" d="M257.2,329.1c.6-1,1.6-1.8,3.3-2.1,1.6-.2,2.2-.6,2.3-2.8,0-2-1.3-2.9-2-4.1-3.6-5.5-6.5-20.7-4.6-26.2"/>
    <path class="cls-2" d="M299,248.8c0,.8,0,1.6,0,2.3,0,7.6-4.9,10.8-4.8,17.1,0,3.5-.1,6.5-.5,8.9"/>
    <path class="cls-2" d="M267.2,258.2c-15.4-.6-28.4-4.3-35.8-14.8-7.4-10.5-20.1-10.8-32.4-9.6-12.3,1.2-25,.9-35.8,0"/>
    <path class="cls-2" d="M180.1,234.6c-.9,2.6,2.1,7.5,25.3,5.1"/>
    <path class="cls-2" d="M182.2,238.5c.6,5.2,12.5,8.9,27.8,5.7"/>
    <path class="cls-2" d="M189.8,244.2c-4.6.2-1.5,5,3.9,5.6,5.4.6,15,.8,20.2-.6"/>
    <path class="cls-2" d="M193.7,249.9c-3.1,2.5-1.5,5.9,8.3,6.6,2.2.2,10.2.3,17.6-1.9"/>
    <path class="cls-2" d="M203.1,256.6c-2.8,1.9.3,5.2,5.5,5.2s11.1-.9,15.1-2.9"/>
    <path class="cls-2" d="M208.6,261.7c-2.2,2.9,1.3,6.1,8.2,4.5,2.6-.6,8.8-3.1,10.6-4.6"/>
    <path class="cls-2" d="M217.4,266.1c-2.9,1.9-1,6.2,4.6,3.5,2.3-1.1,5.4-2.9,7.6-5.1"/>
    <path class="cls-2" d="M222,269.6c-.8,2.3,1.7,4.2,5.2,2,3.5-2.2,5.4-4.5,6.5-6.2"/>
    <path class="cls-2" d="M227.3,271.6c-.5,2,1.9,5.2,9.9-3.9"/>
    <path class="cls-2" d="M231.1,273.2c-.6,2.5,3.1,4,8.9-3.5"/>
    <path class="cls-2" d="M235.3,274.4c1.5,2.5,3.9,2.3,9.3-3.5"/>
    <path class="cls-2" d="M239.2,275.5c-.3,2.3,3.5,2.9,7.9-1.9"/>
    <path class="cls-2" d="M244,276.2c-.3,2.3,4.4,1.2,7.7-2.8"/>
    <path class="cls-2" d="M248.3,276.4c1.2,1.9,5.2,2,7.9-2.5"/>
    <path class="cls-2" d="M255.4,275c-2.5,3.2,1.5,4.5,4.6,1.2"/>
    <path class="cls-2" d="M258.3,279.2c5.4-4.2,2.9-13.1,6.9-13.1"/>
    <path class="cls-2" d="M127.3,235.5c10,3.7,37.2,6,55.4,4.5"/>
    <path class="cls-2" d="M132.9,243.2c11.4,3.2,38.5,4.2,55.1,3.7"/>
    <path class="cls-2" d="M142,251.7c8,1.9,34.9,5.9,52.1,2.9"/>
    <path class="cls-2" d="M155.9,262.1c6.8,1.7,34.1,3.9,48.7-1"/>
    <path class="cls-2" d="M188.6,271.8c4.3-.2,15-2.7,20.7-6.1"/>
    <path class="cls-2" d="M195.2,277.5c6.3-.9,15.4-3.6,21.1-8.3"/>
    <path class="cls-2" d="M201.7,281.2c4.5-.2,16.2-5,21.3-8.9"/>
    <path class="cls-2" d="M215.1,283.2c4.5-1.8,10.2-5.6,14.3-9.3"/>
    <path class="cls-2" d="M224.7,285.8c4.2-2.9,7.7-7.3,11-11"/>
    <path class="cls-2" d="M231.6,286.1c3.2-1.8,5.7-5.4,8.3-9.1"/>
    <path class="cls-2" d="M237,285.8c2.6-1.9,5.9-5.5,7.7-8.4"/>
    <path class="cls-2" d="M242.1,286.1c2.5-2,5.2-5.4,6.9-8.9"/>
    <path class="cls-2" d="M248.6,285.5c2.2-1.8,4.2-4.4,6.1-8.5"/>
    <path class="cls-2" d="M247.2,328.7c3.2-5.6,7.1-12.2,9.9-18.5"/>
    <path class="cls-2" d="M255.5,327.2c1.9-2.8,3.1-6.1,4.5-8.5"/>
    <path class="cls-2" d="M271.7,327c0-3.3-.7-13.9-.5-19.1"/>
    <path class="cls-2" d="M279.2,328c0-3.9-1.6-12.6-1.5-19"/>
    <path class="cls-2" d="M291.5,326.9c-.5-1.9-1.9-8.3-2.2-11.1"/>
    <path class="cls-2" d="M299,255.4c16-.3,20.4-25.9,46.6-25.3,26.2.6,42.3,2.5,54.6,1.2"/>
    <path class="cls-2" d="M350.7,236.3c16.4,1.2,23.1-1.2,23-5.1"/>
    <path class="cls-2" d="M347.8,241.2c10.3,1.4,20.6,2.3,20.2-5.4"/>
    <path class="cls-2" d="M343.1,246.3c8.3,1.7,21,3.9,20.7-4.8"/>
    <path class="cls-2" d="M337,251.3c11.9,3.4,23.3,4.6,22.5-3.9"/>
    <path class="cls-2" d="M332.3,256.8c10.3,4,21.6,4.4,20.4-3"/>
    <path class="cls-2" d="M327.4,260c9.3,6,17.1,5.2,17.1-.3"/>
    <path class="cls-2" d="M323.1,263c8,5.7,13.7,6.2,14.5,1.1"/>
    <path class="cls-2" d="M320.3,265c5.2,5.9,9.9,5.7,11,2.3"/>
    <path class="cls-2" d="M316.6,265.4c3.4,5.4,8.8,7.4,9.3,3.9"/>
    <path class="cls-2" d="M313.7,266.8c3.4,5.4,8.3,7.6,8.8,4"/>
    <path class="cls-2" d="M310.6,268.1c3,5.6,7.6,7.5,8.3,4"/>
    <path class="cls-2" d="M307.2,268.7c2.1,6.3,6.7,8,7.7,4.4"/>
    <path class="cls-2" d="M303.5,268c.9,6.5,5.1,9.1,6.7,5.7"/>
    <path class="cls-2" d="M300.6,269.4c.9,6.5,4,8,6,5.3"/>
    <path class="cls-2" d="M296.8,269.7c.9,6.5,4,8,6,5.3"/>
    <path class="cls-2" d="M298.4,274.6c-.9,1.3-2.5,2.5-4.4.5"/>
    <path class="cls-2" d="M423.7,231.4c-8.3,5.7-44.6,7.1-55.8,6.6"/>
    <path class="cls-2" d="M417.8,239.5c-11.4,5.1-34.4,6.8-55.2,5.9"/>
    <path class="cls-2" d="M409.9,248.3c-8.8,4.2-40.4,4.5-51.7,3.5"/>
    <path class="cls-2" d="M395.1,258c-9.6,1.7-30.9,1.1-43.5-.2"/>
    <path class="cls-2" d="M370.6,267c-7.4-.2-19.5-2.1-27.3-4.1"/>
    <path class="cls-2" d="M362.1,272.5c-4.8.6-18.9-2.5-26-5.7"/>
    <path class="cls-2" d="M355.8,277.3c-4.2.8-18.2-1.7-25.6-8.3"/>
    <path class="cls-2" d="M342.7,281c-6.2-.6-14.1-5.2-18.4-10"/>
    <path class="cls-2" d="M333.1,283.3c-5.4-1.1-9.7-6-13.3-11"/>
    <path class="cls-2" d="M326,284c-2.8-2-7.9-6.4-10.5-10.5"/>
    <path class="cls-2" d="M319.8,284.3c-3.5-1.8-6.4-5.8-7.8-9.4"/>
    <path class="cls-2" d="M313.5,283.8c-2-2.3-4-5.2-5.2-8.6"/>
    <path class="cls-2" d="M308,284c-1.6-2.1-2.9-3.9-4.5-8.3"/>
    <path class="cls-2" d="M302.6,283.3c-1.7-1.9-2.8-4-4.5-8.3"/>
    <path class="cls-2" d="M306.7,238.4c-1.7.1-3.4,0-4.1.3"/>
    <path class="cls-2" d="M305.5,233.7c.1.9-.7.8-.8,1.6"/>
    <path class="cls-2" d="M293.4,233.6c2-.6,3.9.9,5.8.5.8-.2,2.2-.3,3.5.4"/>
    <path class="cls-2" d="M296.1,233.8c-.2,1,.6,1.9,1.8,2,1,0,2.1-.6,2-1.8"/>
  </g>
  <path class="cls-9" d="M276,112.2l-.4,1.3-2.9,8.9h-10.7s8.7,6.3,8.7,6.3l-3.3,10.1,8.6-6.3,8.6,6.3-3.3-10.1,8.6-6.3h-10.7s-3.3-10.2-3.3-10.2Z"/>
  <path id="star-4" class="cls-4" d="M276,113.6l-3,9.2h-9.7s7.8,5.7,7.8,5.7l-3,9.2,7.8-5.7,7.8,5.7-3-9.1,7.8-5.7h-9.7s-3-9.2-3-9.2Z"/>
  <g>
    <path id="star-4-2" data-name="star-4" class="cls-7" d="M130.9,189.1l5.8,7.7-5.6,7.9,9.1-3.1,5.8,7.7-.2-9.6,9.1-3.1-9.2-2.8-.2-9.7-5.6,7.9-9.2-2.8Z"/>
    <path id="star-4-3" data-name="star-4" class="cls-3" d="M159.2,157.5l3.8,8.9-7.3,6.4,9.6-.9,3.8,8.9,2.1-9.4,9.6-.9-8.3-4.9,2.1-9.4-7.3,6.4-8.3-4.9Z"/>
    <path id="star-4-4" data-name="star-4" class="cls-5" d="M194.2,133.6l1.6,9.5-8.6,4.5,9.6,1.4,1.6,9.5,4.3-8.6,9.5,1.4-6.9-6.7,4.3-8.6-8.6,4.5-6.9-6.8Z"/>
    <path id="star-4-5" data-name="star-4" class="cls-6" d="M233.9,118.7l-.7,9.6-9.4,2.3,9,3.7-.7,9.6,6.2-7.4,8.9,3.6-5.1-8.2,6.2-7.4-9.4,2.3-5.1-8.2Z"/>
    <path id="star-4-6" data-name="star-4" class="cls-6" d="M318.1,118.7l-5.1,8.2-9.4-2.3,6.2,7.4-5.1,8.2,8.9-3.6,6.2,7.3-.7-9.6,8.9-3.6-9.4-2.3-.7-9.6Z"/>
    <path id="star-4-7" data-name="star-4" class="cls-5" d="M357.8,133.6l-6.9,6.8-8.6-4.5,4.3,8.7-6.9,6.8,9.5-1.4,4.3,8.6,1.6-9.5,9.6-1.4-8.6-4.5,1.6-9.5Z"/>
    <path id="star-4-8" data-name="star-4" class="cls-3" d="M392.8,157.6l-8.3,4.9-7.3-6.4,2.1,9.4-8.3,4.9,9.6.9,2.1,9.4,3.8-8.8,9.6.9-7.3-6.4,3.8-8.9Z"/>
    <path id="star-4-9" data-name="star-4" class="cls-7" d="M421.1,189.1l-9.2,2.8-5.5-7.9-.2,9.7-9.2,2.8,9.1,3.1-.2,9.6,5.8-7.7,9.1,3.2-5.5-7.9,5.8-7.7Z"/>
  </g>
</svg>